<svg width="47" height="54" viewBox="0 0 47 54" fill="none" xmlns="http://www.w3.org/2000/svg">
<path d="M46.9999 1.79854C47.0002 1.51629 46.934 1.23794 46.8067 0.986045C46.6794 0.734153 46.4945 0.515808 46.267 0.348705C46.0395 0.181602 45.7759 0.0704435 45.4974 0.0242377C45.219 -0.021968 44.9336 -0.00192084 44.6643 0.0827547L37.9539 2.22075C28.5515 5.22093 18.4485 5.22093 9.04609 2.22075L2.33567 0.0827547C2.06642 -0.00192084 1.78101 -0.021968 1.50256 0.0242377C1.22412 0.0704435 0.96048 0.181602 0.73301 0.348705C0.505541 0.515808 0.320641 0.734153 0.193298 0.986045C0.0659543 1.23794 -0.000250287 1.51629 4.9175e-05 1.79854V23.5917C-0.00843349 28.536 1.08063 33.4205 3.18866 37.8929C5.29669 42.3653 8.37114 46.314 12.1902 49.4542L17.086 53.4876C17.4069 53.7535 17.8102 53.8996 18.2269 53.9009H28.7731C29.1898 53.8996 29.5931 53.7535 29.914 53.4876L34.8098 49.4542C38.6289 46.314 41.7033 42.3653 43.8113 37.8929C45.9194 33.4205 47.0084 28.536 46.9999 23.5917V1.79854ZM43.4067 23.5917C43.4199 28.0111 42.4507 32.3782 40.5693 36.3772C38.6879 40.3761 35.9413 43.907 32.5281 46.7143L28.1263 50.3076H18.8737L14.5168 46.7143C11.0954 43.9113 8.34027 40.3824 6.45099 36.3832C4.5617 32.384 3.58558 28.0147 3.59331 23.5917V4.25094C17.6699 9.31744 29.3211 9.32643 43.4067 4.25094V23.5917Z" fill="#5482FF"/>
<path d="M16.1781 20.5108C16.1781 20.9873 16.3674 21.4443 16.7043 21.7813C17.0413 22.1182 17.4982 22.3075 17.9747 22.3075C18.4512 22.3075 18.9082 22.1182 19.2451 21.7813C19.5821 21.4443 19.7714 20.9873 19.7714 20.5108C19.7103 18.9042 19.0291 17.3838 17.8708 16.2687C16.7125 15.1537 15.1673 14.5308 13.5595 14.5308C11.9517 14.5308 10.4065 15.1537 9.24823 16.2687C8.08996 17.3838 7.40876 18.9042 7.34766 20.5108C7.34766 20.9873 7.53694 21.4443 7.87388 21.7813C8.21081 22.1182 8.66779 22.3075 9.14429 22.3075C9.62079 22.3075 10.0778 22.1182 10.4147 21.7813C10.7516 21.4443 10.9409 20.9873 10.9409 20.5108C10.9801 19.8429 11.273 19.2151 11.7598 18.756C12.2466 18.2969 12.8904 18.0412 13.5595 18.0412C14.2286 18.0412 14.8725 18.2969 15.3592 18.756C15.846 19.2151 16.139 19.8429 16.1781 20.5108Z" fill="#5482FF"/>
<path d="M30.8208 20.5109C30.8599 19.8429 31.1529 19.2151 31.6397 18.756C32.1264 18.297 32.7703 18.0412 33.4394 18.0412C34.1085 18.0412 34.7523 18.297 35.2391 18.756C35.7259 19.2151 36.0188 19.8429 36.058 20.5109C36.058 20.9874 36.2473 21.4444 36.5842 21.7813C36.9211 22.1182 37.3781 22.3075 37.8546 22.3075C38.3311 22.3075 38.7881 22.1182 39.125 21.7813C39.462 21.4444 39.6512 20.9874 39.6512 20.5109C39.3638 12.2913 27.515 12.2913 27.2275 20.5109C27.2275 20.9874 27.4168 21.4444 27.7538 21.7813C28.0907 22.1182 28.5477 22.3075 29.0242 22.3075C29.5007 22.3075 29.9576 22.1182 30.2946 21.7813C30.6315 21.4444 30.8208 20.9874 30.8208 20.5109Z" fill="#5482FF"/>
<path d="M15.7751 29.8982C15.6275 29.6642 15.4278 29.4674 15.1917 29.3232C14.9555 29.1791 14.6892 29.0914 14.4136 29.067C14.138 29.0427 13.8605 29.0823 13.6027 29.1829C13.3449 29.2834 13.1138 29.4421 12.9275 29.6467C7.46571 36.1954 14.5175 43.0046 23.5007 42.8968C32.4838 43.0046 39.5356 36.1954 34.0738 29.6467C33.8875 29.4421 33.6564 29.2834 33.3986 29.1829C33.1408 29.0823 32.8633 29.0427 32.5877 29.067C32.3121 29.0914 32.0458 29.1791 31.8096 29.3232C31.5735 29.4674 31.3738 29.6642 31.2262 29.8982C27.9922 35.2072 19.0091 35.2072 15.7751 29.8982ZM32.3581 34.1383C32.6365 37.1027 28.0372 39.3036 23.5007 39.3395C18.9642 39.3754 14.3648 37.0668 14.6433 34.1383C19.2247 38.6298 27.7766 38.6298 32.3581 34.1383Z" fill="#5482FF"/>
</svg>
