<svg width="34" height="53" viewBox="0 0 34 53" fill="none" xmlns="http://www.w3.org/2000/svg">
<path d="M32.2564 0H1.74359C1.28116 0 0.837672 0.183699 0.510686 0.510686C0.183699 0.837672 0 1.28116 0 1.74359V50.5641C0.0014171 50.9069 0.103823 51.2416 0.294418 51.5265C0.485013 51.8113 0.755343 52.0337 1.07162 52.1658C1.3879 52.2979 1.73609 52.3338 2.07268 52.2691C2.40927 52.2044 2.71933 52.042 2.9641 51.8021L17.0087 37.9754L31.0359 51.8021C31.2807 52.042 31.5907 52.2044 31.9273 52.2691C32.2639 52.3338 32.6121 52.2979 32.9284 52.1658C33.2447 52.0337 33.515 51.8113 33.7056 51.5265C33.8962 51.2416 33.9986 50.9069 34 50.5641V1.74359C34 1.28116 33.8163 0.837672 33.4893 0.510686C33.1623 0.183699 32.7188 0 32.2564 0ZM30.5128 46.3969L18.2292 34.279C17.9033 33.9595 17.4651 33.7806 17.0087 33.7806C16.5523 33.7806 16.1141 33.9595 15.7882 34.279L3.50462 46.3969V3.48718H30.5303L30.5128 46.3969Z" fill="#5482FF"/>
<path d="M11.3422 18.918H15.2653V22.8411C15.2653 23.3035 15.449 23.747 15.776 24.074C16.103 24.401 16.5465 24.5847 17.0089 24.5847C17.4713 24.5847 17.9148 24.401 18.2418 24.074C18.5688 23.747 18.7525 23.3035 18.7525 22.8411V18.918H22.6756C23.138 18.918 23.5815 18.7343 23.9085 18.4073C24.2354 18.0803 24.4191 17.6368 24.4191 17.1744C24.4191 16.712 24.2354 16.2685 23.9085 15.9415C23.5815 15.6145 23.138 15.4308 22.6756 15.4308H18.7525V11.5077C18.7525 11.0453 18.5688 10.6018 18.2418 10.2748C17.9148 9.94786 17.4713 9.76416 17.0089 9.76416C16.5465 9.76416 16.103 9.94786 15.776 10.2748C15.449 10.6018 15.2653 11.0453 15.2653 11.5077V15.4308H11.3422C10.8798 15.4308 10.4363 15.6145 10.1093 15.9415C9.78233 16.2685 9.59863 16.712 9.59863 17.1744C9.59863 17.6368 9.78233 18.0803 10.1093 18.4073C10.4363 18.7343 10.8798 18.918 11.3422 18.918Z" fill="#5482FF"/>
</svg>
