<svg width="340" height="316" viewBox="0 0 340 316" xmlns="http://www.w3.org/2000/svg" xmlns:c2pa="http://c2pa.org/manifest"><metadata><c2pa:manifest>AAAWgmp1bWIAAAAeanVtZGMycGEAEQAQgAAAqgA4m3EDYzJwYQAAABZcanVtYgAAAEdqdW1kYzJtYQARABCAAACqADibcQN1cm46YzJwYTo3MzlhYjA0Ny1lNTYwLTRjMzQtYWE0NC1kNjJmMjZiYjM5OTcAAAADl2p1bWIAAAApanVtZGMyYXMAEQAQgAAAqgA4m3EDYzJwYS5hc3NlcnRpb25zAAAAALxqdW1iAAAARGp1bWRjYm9yABEAEIAAAKoAOJtxE2MycGEuaW5ncmVkaWVudC52MwAAAAAYYzJzaItuuxCnRP6lGkpAFemPzEQAAABwY2JvcqNpZGM6Zm9ybWF0bWltYWdlL3N2Zyt4bWxqaW5zdGFuY2VJRHgseG1wOmlpZDoxZjRkZWZlYy1kNjZmLTQ4YjUtYTlkZS1jZDJkOGRjMWJiYTZscmVsYXRpb25zaGlwaHBhcmVudE9mAAAB4mp1bWIAAABBanVtZGNib3IAEQAQgAAAqgA4m3ETYzJwYS5hY3Rpb25zLnYyAAAAABhjMnNoXcWuJ6mUA6MVcsSC/aO5hAAAAZljYm9yomdhY3Rpb25zgqJmYWN0aW9ua2MycGEub3BlbmVkanBhcmFtZXRlcnOha2luZ3JlZGllbnRzgaJjdXJseC1zZWxmI2p1bWJmPWMycGEuYXNzZXJ0aW9ucy9jMnBhLmluZ3JlZGllbnQudjNkaGFzaFggtzK8xyrnmgYTKAQsU7ATdCS5K1mhTf/eN3x/T1tXRDqkZmFjdGlvbngdY29tLmFudGhyb3BpYy5jbGF1ZGUucHJvdmlkZWRqcGFyYW1ldGVyc6F4H2NvbS5hbnRocm9waWMub3JpZ2luLWNvbmZpZGVuY2VndW5rbm93bmtkZXNjcmlwdGlvbnhmQ2xhdWRlIHByb3ZpZGVkIHRoaXMgZmlsZSBhdCB0aGUgcmVxdWVzdCBvZiBhIHVzZXIgYW5kIG1heSBoYXZlIGNyZWF0ZWQgb3IgbW9kaWZpZWQgdGhlIGZpbGUgY29udGVudHMubXNvZnR3YXJlQWdlbnShZG5hbWVmQ2xhdWRlcmFsbEFjdGlvbnNJbmNsdWRlZPUAAADIanVtYgAAAEBqdW1kY2JvcgARABCAAACqADibcRNjMnBhLmhhc2guZGF0YQAAAAAYYzJzaNpCy1KJTVKEmXCT5rNz0iQAAACAY2JvcqVjYWxnZnNoYTI1NmNwYWRNAAAAAAAAAAAAAAAAAGRoYXNoWCDExWvfXjROU3MNJh4NI2KadiBdUZrh2PjJ1MpeohDHMGRuYW1lbmp1bWJmIG1hbmlmZXN0amV4Y2x1c2lvbnOBomVzdGFydBiWZmxlbmd0aBkeBAAAAj5qdW1iAAAAJ2p1bWRjMmNsABEAEIAAAKoAOJtxA2MycGEuY2xhaW0udjIAAAACD2Nib3KlY2FsZ2ZzaGEyNTZpc2lnbmF0dXJleE1zZWxmI2p1bWJmPS9jMnBhL3VybjpjMnBhOjczOWFiMDQ3LWU1NjAtNGMzNC1hYTQ0LWQ2MmYyNmJiMzk5Ny9jMnBhLnNpZ25hdHVyZWppbnN0YW5jZUlEeCx4bXA6aWlkOjY4ZWVlZjc3LTZmZDAtNDRjNy04NzU4LTRjN2RiZmJkYmNhMXJjcmVhdGVkX2Fzc2VydGlvbnODomN1cmx4LXNlbGYjanVtYmY9YzJwYS5hc3NlcnRpb25zL2MycGEuaW5ncmVkaWVudC52M2RoYXNoWCC3MrzHKueaBhMoBCxTsBN0JLkrWaFN/943fH9PW1dEOqJjdXJseCpzZWxmI2p1bWJmPWMycGEuYXNzZXJ0aW9ucy9jMnBhLmFjdGlvbnMudjJkaGFzaFggRPItpY20R1gwMyAHa2SXraXzIskf1/m+Ox7eb+AzVx+iY3VybHgpc2VsZiNqdW1iZj1jMnBhLmFzc2VydGlvbnMvYzJwYS5oYXNoLmRhdGFkaGFzaFggB8qZOkB+w+Mp+O3AUiyJn9/A3FTNApLvNgBZhLP2b+Z0Y2xhaW1fZ2VuZXJhdG9yX2luZm+jZG5hbWVvQW50aHJvcGljIEZpbGVzZ3ZlcnNpb25lMS4wLjBrc3BlY1ZlcnNpb25lMi40LjAAABA4anVtYgAAAChqdW1kYzJjcwARABCAAACqADibcQNjMnBhLnNpZ25hdHVyZQAAABAIY2JvctKEWQISogEmGCFZAgowggIGMIIBjaADAgECAhRA5aAK7sI50L64g/oGQgU9Z1UTADAKBggqhkjOPQQDAzBJMRcwFQYDVQQKEw5BbnRocm9waWMsIFBCQzEuMCwGA1UEAxMlQW50aHJvcGljIENvbnRlbnQgQ3JlZGVudGlhbHMgUm9vdCBDQTAeFw0yNjA4MDcxODQzNTZaFw0yODA4MDYxOTQzNTZaMEQxFzAVBgNVBAoTDkFudGhyb3BpYywgUEJDMSkwJwYDVQQDEyBBbnRocm9waWMgQ2xhdWRlIENvbnRlbnQgU2lnbmluZzBZMBMGByqGSM49AgEGCCqGSM49AwEHA0IABJh6CmvLUBgFFNU0vUKlOVtE6djd17L5SuwX0LemFisBM3dkd/3cyjxFA3Qo5S46fX0/ihY0VZ7mfb9KF703t5OjWDBWMA4GA1UdDwEB/wQEAwIHgDAVBgNVHSUEDjAMBgorBgEEAYPoXgIBMAwGA1UdEwEB/wQCMAAwHwYDVR0jBBgwFoAUzlHiBIFOZFsj+OPEz5o+nMHXXMIwCgYIKoZIzj0EAwMDZwAwZAIwMXMdFJ4BetLLVY7ORuE9noqbbAZOZn/aArXyTwFAZfKrPzxF2vPoJNf1+UCdg1XGAjBwX1zd9WGqYkqmL5SFqw1QySjr1zJfpJM9+1rdDwSPLMOPOjKuiXjoU/pUUeG9RwmhY3BhZFkNngAAAAAAAAAAAAAAAAAAAAAAAAAAAAAAAAAAAAAAAAAAAAAAAAAAAAAAAAAAAAAAAAAAAAAAAAAAAAAAAAAAAAAAAAAAAAAAAAAAAAAAAAAAAAAAAAAAAAAAAAAAAAAAAAAAAAAAAAAAAAAAAAAAAAAAAAAAAAAAAAAAAAAAAAAAAAAAAAAAAAAAAAAAAAAAAAAAAAAAAAAAAAAAAAAAAAAAAAAAAAAAAAAAAAAAAAAAAAAAAAAAAAAAAAAAAAAAAAAAAAAAAAAAAAAAAAAAAAAAAAAAAAAAAAAAAAAAAAAAAAAAAAAAAAAAAAAAAAAAAAAAAAAAAAAAAAAAAAAAAAAAAAAAAAAAAAAAAAAAAAAAAAAAAAAAAAAAAAAAAAAAAAAAAAAAAAAAAAAAAAAAAAAAAAAAAAAAAAAAAAAAAAAAAAAAAAAAAAAAAAAAAAAAAAAAAAAAAAAAAAAAAAAAAAAAAAAAAAAAAAAAAAAAAAAAAAAAAAAAAAAAAAAAAAAAAAAAAAAAAAAAAAAAAAAAAAAAAAAAAAAAAAAAAAAAAAAAAAAAAAAAAAAAAAAAAAAAAAAAAAAAAAAAAAAAAAAAAAAAAAAAAAAAAAAAAAAAAAAAAAAAAAAAAAAAAAAAAAAAAAAAAAAAAAAAAAAAAAAAAAAAAAAAAAAAAAAAAAAAAAAAAAAAAAAAAAAAAAAAAAAAAAAAAAAAAAAAAAAAAAAAAAAAAAAAAAAAAAAAAAAAAAAAAAAAAAAAAAAAAAAAAAAAAAAAAAAAAAAAAAAAAAAAAAAAAAAAAAAAAAAAAAAAAAAAAAAAAAAAAAAAAAAAAAAAAAAAAAAAAAAAAAAAAAAAAAAAAAAAAAAAAAAAAAAAAAAAAAAAAAAAAAAAAAAAAAAAAAAAAAAAAAAAAAAAAAAAAAAAAAAAAAAAAAAAAAAAAAAAAAAAAAAAAAAAAAAAAAAAAAAAAAAAAAAAAAAAAAAAAAAAAAAAAAAAAAAAAAAAAAAAAAAAAAAAAAAAAAAAAAAAAAAAAAAAAAAAAAAAAAAAAAAAAAAAAAAAAAAAAAAAAAAAAAAAAAAAAAAAAAAAAAAAAAAAAAAAAAAAAAAAAAAAAAAAAAAAAAAAAAAAAAAAAAAAAAAAAAAAAAAAAAAAAAAAAAAAAAAAAAAAAAAAAAAAAAAAAAAAAAAAAAAAAAAAAAAAAAAAAAAAAAAAAAAAAAAAAAAAAAAAAAAAAAAAAAAAAAAAAAAAAAAAAAAAAAAAAAAAAAAAAAAAAAAAAAAAAAAAAAAAAAAAAAAAAAAAAAAAAAAAAAAAAAAAAAAAAAAAAAAAAAAAAAAAAAAAAAAAAAAAAAAAAAAAAAAAAAAAAAAAAAAAAAAAAAAAAAAAAAAAAAAAAAAAAAAAAAAAAAAAAAAAAAAAAAAAAAAAAAAAAAAAAAAAAAAAAAAAAAAAAAAAAAAAAAAAAAAAAAAAAAAAAAAAAAAAAAAAAAAAAAAAAAAAAAAAAAAAAAAAAAAAAAAAAAAAAAAAAAAAAAAAAAAAAAAAAAAAAAAAAAAAAAAAAAAAAAAAAAAAAAAAAAAAAAAAAAAAAAAAAAAAAAAAAAAAAAAAAAAAAAAAAAAAAAAAAAAAAAAAAAAAAAAAAAAAAAAAAAAAAAAAAAAAAAAAAAAAAAAAAAAAAAAAAAAAAAAAAAAAAAAAAAAAAAAAAAAAAAAAAAAAAAAAAAAAAAAAAAAAAAAAAAAAAAAAAAAAAAAAAAAAAAAAAAAAAAAAAAAAAAAAAAAAAAAAAAAAAAAAAAAAAAAAAAAAAAAAAAAAAAAAAAAAAAAAAAAAAAAAAAAAAAAAAAAAAAAAAAAAAAAAAAAAAAAAAAAAAAAAAAAAAAAAAAAAAAAAAAAAAAAAAAAAAAAAAAAAAAAAAAAAAAAAAAAAAAAAAAAAAAAAAAAAAAAAAAAAAAAAAAAAAAAAAAAAAAAAAAAAAAAAAAAAAAAAAAAAAAAAAAAAAAAAAAAAAAAAAAAAAAAAAAAAAAAAAAAAAAAAAAAAAAAAAAAAAAAAAAAAAAAAAAAAAAAAAAAAAAAAAAAAAAAAAAAAAAAAAAAAAAAAAAAAAAAAAAAAAAAAAAAAAAAAAAAAAAAAAAAAAAAAAAAAAAAAAAAAAAAAAAAAAAAAAAAAAAAAAAAAAAAAAAAAAAAAAAAAAAAAAAAAAAAAAAAAAAAAAAAAAAAAAAAAAAAAAAAAAAAAAAAAAAAAAAAAAAAAAAAAAAAAAAAAAAAAAAAAAAAAAAAAAAAAAAAAAAAAAAAAAAAAAAAAAAAAAAAAAAAAAAAAAAAAAAAAAAAAAAAAAAAAAAAAAAAAAAAAAAAAAAAAAAAAAAAAAAAAAAAAAAAAAAAAAAAAAAAAAAAAAAAAAAAAAAAAAAAAAAAAAAAAAAAAAAAAAAAAAAAAAAAAAAAAAAAAAAAAAAAAAAAAAAAAAAAAAAAAAAAAAAAAAAAAAAAAAAAAAAAAAAAAAAAAAAAAAAAAAAAAAAAAAAAAAAAAAAAAAAAAAAAAAAAAAAAAAAAAAAAAAAAAAAAAAAAAAAAAAAAAAAAAAAAAAAAAAAAAAAAAAAAAAAAAAAAAAAAAAAAAAAAAAAAAAAAAAAAAAAAAAAAAAAAAAAAAAAAAAAAAAAAAAAAAAAAAAAAAAAAAAAAAAAAAAAAAAAAAAAAAAAAAAAAAAAAAAAAAAAAAAAAAAAAAAAAAAAAAAAAAAAAAAAAAAAAAAAAAAAAAAAAAAAAAAAAAAAAAAAAAAAAAAAAAAAAAAAAAAAAAAAAAAAAAAAAAAAAAAAAAAAAAAAAAAAAAAAAAAAAAAAAAAAAAAAAAAAAAAAAAAAAAAAAAAAAAAAAAAAAAAAAAAAAAAAAAAAAAAAAAAAAAAAAAAAAAAAAAAAAAAAAAAAAAAAAAAAAAAAAAAAAAAAAAAAAAAAAAAAAAAAAAAAAAAAAAAAAAAAAAAAAAAAAAAAAAAAAAAAAAAAAAAAAAAAAAAAAAAAAAAAAAAAAAAAAAAAAAAAAAAAAAAAAAAAAAAAAAAAAAAAAAAAAAAAAAAAAAAAAAAAAAAAAAAAAAAAAAAAAAAAAAAAAAAAAAAAAAAAAAAAAAAAAAAAAAAAAAAAAAAAAAAAAAAAAAAAAAAAAAAAAAAAAAAAAAAAAAAAAAAAAAAAAAAAAAAAAAAAAAAAAAAAAAAAAAAAAAAAAAAAAAAAAAAAAAAAAAAAAAAAAAAAAAAAAAAAAAAAAAAAAAAAAAAAAAAAAAAAAAAAAAAAAAAAAAAAAAAAAAAAAAAAAAAAAAAAAAAAAAAAAAAAAAAAAAAAAAAAAAAAAAAAAAAAAAAAAAAAAAAAAAAAAAAAAAAAAAAAAAAAAAAAAAAAAAAAAAAAAAAAAAAAAAAAAAAAAAAAAAAAAAAAAAAAAAAAAAAAAAAAAAAAAAAAAAAAAAAAAAAAAAAAAAAAAAAAAAAAAAAAAAAAAAAAAAAAAAAAAAAAAAAAAAAAAAAAAAAAAAAAAAAAAAAAAAAAAAAAAAAAAAAAAAAAAAAAAAAAAAAAAAAAAAAAAAAAAAAAAAAAAAAAAAAAAAAAAAAAAAAAAAAAAAAAAAAAAAAAAAAAAAAAAAAAAAAAAAAAAAAAAAAAAAAAAAAAAAAAAAAAAAAAAAAAAAAAAAAAAAAAAAAAAAAAAAAAAAAAAAAAAAAAAAAAAAAAAAAAAAAAAAAAAAAAAAAAAAAAAAAAAAAAAAAAAAAAAAAAAAAAAAAAAAAAAAAAAAAAAAAAAAAAAAAAAAAAAAAAAAAAAAAAAAAAAAAAAAAAAAAAAAAAAAAAAAAAAAAAAAAAAAAAAAAAAAAAAAAAAAAAAAAAAAAAAAAAAAAAAAAAAAAAAAAAAAAAAAAAAAAAAAAAAAAAAAAAAAAAAAAAAAAAAAAAAAAAAAAAAAAAAAAAAAAAAAAAAAAAAAAAAAAAAAAAAAAAAAAAAAAAAAAAAAAAAAAAAAAAAAAAAAAAAAAAAAAAAAAAAAAAAAAAAAAAAAAAAAAAAAAAAAAAAAAAAAAAAAAAAAAAAAAAAAAAAAAAAAAAAAAAAAAAAAAAAAAAAAAAAAAAAAAAAAAAAAAAAAAAAAAAAAAAAAAAAAAAAAAAAAAAAAAAAAAAAAAAAAAAAAAAAAAAAAAAAAAAAAAAAAAAAAAAAAAAAAAAAAAAAAAAAAAAAAAAAAAAAAAAAAAAAAAAAAAAAAAAAAAAAAAAAAAAAAAAAAAAAAAAAAAAAAAAAAAAAAAAAAAAAAAAAAAAAAAAAAAAAAAAAAAAAAAAAAAAAAAAAAAAAAAAAAAAAAAAAAAAAAAAAAAAAAAAAAAAAAAAAAAAAAAAAAAAAAAAAAAAAAAAAAAAAAAAAAAAAAAAAAAAAAAAAAAAAAAAAAAAAAAAAAAAAAAAAAAAAAAAAAAAAAAAAAAAAAAAAAAAAAAAAAAAAAAAAAAAAAAAAAAAAAAAAAAAAAAAAAAAAAAAAAAAAAAAAAAAAAAAAAAAAAAAAAAAAAAAAAAAAAAAAAAAAAAAAAAAAAAAAAAAAAAAAAAAAAAAAAAAAAAAAAAAAAAAAAAAAAAAAAAAAAAAAAAAAAAAAAAAAAAAAAAAAAAAAAAAAAAAAAAAAAAAAAAAAAAAAAAAAAAAAAAAAAAPZYQAxPmQ3HQQgPfNJ7rlTdS3XQKLJFFxKpWl1iRByalj0mKQjYHmBLap3qyCLjS8OFufzIpT+JHoBozVu89Dux0o4=</c2pa:manifest></metadata>
<rect x="159.7" y="148.9" width="9.3" height="9.3" fill="#4784FF" transform="rotate(-9.2 164.4 153.5)"></rect>
<rect x="150.2" y="150.2" width="9.3" height="9.3" fill="#99BBFF" transform="rotate(-10.9 154.8 154.9)"></rect>
<rect x="140.8" y="150.7" width="10.5" height="10.5" fill="#FF2F2F" transform="rotate(-0.8 146.0 155.9)"></rect>
<rect x="131.9" y="152.7" width="7.2" height="7.2" fill="#99BBFF" transform="rotate(9.4 135.5 156.3)"></rect>
<rect x="121.0" y="148.8" width="8.4" height="8.4" fill="#99BBFF" transform="rotate(-1.1 125.3 153.0)"></rect>
<rect x="170.5" y="159.6" width="9.5" height="9.5" fill="#4784FF" transform="rotate(8.6 175.2 164.3)"></rect>
<rect x="159.9" y="158.2" width="9.9" height="9.9" fill="#FFF399" transform="rotate(-17.1 164.9 163.2)"></rect>
<rect x="151.7" y="160.2" width="9.1" height="9.1" fill="#9AFF99" transform="rotate(-9.1 156.3 164.7)"></rect>
<rect x="142.3" y="162.0" width="8.1" height="8.1" fill="#BCFFBB" transform="rotate(3.8 146.4 166.1)"></rect>
<rect x="121.1" y="160.8" width="9.4" height="9.4" fill="#FFF399" transform="rotate(10.7 125.8 165.5)"></rect>
<rect x="169.8" y="170.5" width="8.2" height="8.2" fill="#4784FF" transform="rotate(-12.2 173.9 174.6)"></rect>
<rect x="159.3" y="169.5" width="8.4" height="8.4" fill="#FFF399" transform="rotate(10.4 163.4 173.7)"></rect>
<rect x="138.6" y="170.8" width="10.3" height="10.3" fill="#99BBFF" transform="rotate(5.6 143.8 176.0)"></rect>
<rect x="132.6" y="169.8" width="7.4" height="7.4" fill="#99BBFF" transform="rotate(-12.3 136.3 173.5)"></rect>
<rect x="122.9" y="171.5" width="8.2" height="8.2" fill="#4784FF" transform="rotate(-15.8 127.0 175.6)"></rect>
<rect x="109.3" y="171.8" width="7.5" height="7.5" fill="#99BBFF" transform="rotate(0.9 113.1 175.6)"></rect>
<rect x="202.5" y="180.8" width="7.3" height="7.3" fill="#4784FF" transform="rotate(-5.5 206.2 184.5)"></rect>
<rect x="189.8" y="182.1" width="7.4" height="7.4" fill="#4784FF" transform="rotate(-2.6 193.5 185.8)"></rect>
<rect x="178.3" y="179.5" width="9.4" height="9.4" fill="#99BBFF" transform="rotate(7.5 183.0 184.2)"></rect>
<rect x="172.6" y="180.5" width="8.4" height="8.4" fill="#FFF399" transform="rotate(-16.1 176.8 184.7)"></rect>
<rect x="162.8" y="181.3" width="7.3" height="7.3" fill="#FF99D8" transform="rotate(-6.2 166.5 184.9)"></rect>
<rect x="152.4" y="183.4" width="6.5" height="6.5" fill="#FFF399" transform="rotate(7.0 155.7 186.7)"></rect>
<rect x="140.2" y="179.1" width="8.4" height="8.4" fill="#99BBFF" transform="rotate(-14.4 144.4 183.3)"></rect>
<rect x="130.3" y="178.7" width="9.0" height="9.0" fill="#99BBFF" transform="rotate(-1.2 134.9 183.3)"></rect>
<rect x="120.9" y="181.6" width="7.3" height="7.3" fill="#99BBFF" transform="rotate(12.5 124.5 185.3)"></rect>
<rect x="109.3" y="179.8" width="7.4" height="7.4" fill="#99BBFF" transform="rotate(-3.7 113.0 183.5)"></rect>
<rect x="100.5" y="181.7" width="9.4" height="9.4" fill="#FF2F2F" transform="rotate(15.9 105.2 186.4)"></rect>
<rect x="301.9" y="191.7" width="9.6" height="9.6" fill="#FF2F2F" transform="rotate(-13.9 306.7 196.5)"></rect>
<rect x="291.3" y="189.7" width="8.4" height="8.4" fill="#99BBFF" transform="rotate(8.7 295.5 193.9)"></rect>
<rect x="212.1" y="191.4" width="7.0" height="7.0" fill="#99BBFF" transform="rotate(-11.7 215.6 194.9)"></rect>
<rect x="201.5" y="190.9" width="9.7" height="9.7" fill="#FFF399" transform="rotate(13.6 206.4 195.7)"></rect>
<rect x="179.2" y="191.7" width="9.7" height="9.7" fill="#9AFF99" transform="rotate(-14.7 184.0 196.6)"></rect>
<rect x="170.0" y="189.5" width="7.9" height="7.9" fill="#FFF9C8" transform="rotate(-3.3 173.9 193.4)"></rect>
<rect x="162.1" y="193.0" width="6.7" height="6.7" fill="#FFF9C8" transform="rotate(-6.3 165.4 196.4)"></rect>
<rect x="140.0" y="191.2" width="8.0" height="8.0" fill="#FFF399" transform="rotate(-1.3 144.0 195.2)"></rect>
<rect x="131.3" y="190.4" width="9.8" height="9.8" fill="#FF99D8" transform="rotate(-14.6 136.2 195.3)"></rect>
<rect x="121.0" y="190.0" width="9.2" height="9.2" fill="#FFF399" transform="rotate(6.4 125.5 194.6)"></rect>
<rect x="111.2" y="189.5" width="7.8" height="7.8" fill="#FFF399" transform="rotate(6.1 115.0 193.4)"></rect>
<rect x="99.9" y="191.3" width="8.3" height="8.3" fill="#FFF399" transform="rotate(-14.2 104.1 195.4)"></rect>
<rect x="90.6" y="190.3" width="7.2" height="7.2" fill="#4784FF" transform="rotate(-16.0 94.2 194.0)"></rect>
<rect x="80.1" y="190.2" width="7.5" height="7.5" fill="#4784FF" transform="rotate(10.3 83.9 193.9)"></rect>
<rect x="69.0" y="190.4" width="8.8" height="8.8" fill="#FF2F2F" transform="rotate(-0.0 73.4 194.8)"></rect>
<rect x="52.2" y="191.7" width="8.4" height="8.4" fill="#FF2F2F" transform="rotate(-16.6 56.4 195.9)"></rect>
<rect x="309.6" y="201.4" width="7.4" height="7.4" fill="#4784FF" transform="rotate(-0.0 313.3 205.1)"></rect>
<rect x="289.3" y="201.7" width="9.9" height="9.9" fill="#FFF399" transform="rotate(6.2 294.2 206.7)"></rect>
<rect x="278.3" y="198.5" width="10.3" height="10.3" fill="#99BBFF" transform="rotate(-1.1 283.4 203.7)"></rect>
<rect x="233.1" y="199.9" width="6.9" height="6.9" fill="#FF2F2F" transform="rotate(14.4 236.5 203.3)"></rect>
<rect x="180.0" y="201.4" width="9.5" height="9.5" fill="#FFF399" transform="rotate(-4.4 184.7 206.1)"></rect>
<rect x="170.8" y="201.5" width="8.0" height="8.0" fill="#FFF9C8" transform="rotate(-12.5 174.8 205.5)"></rect>
<rect x="162.0" y="199.9" width="7.2" height="7.2" fill="#FFF399" transform="rotate(-15.1 165.6 203.5)"></rect>
<rect x="149.5" y="200.5" width="9.2" height="9.2" fill="#9AFF99" transform="rotate(-1.3 154.1 205.1)"></rect>
<rect x="140.5" y="200.8" width="7.8" height="7.8" fill="#FFF399" transform="rotate(4.9 144.4 204.7)"></rect>
<rect x="121.6" y="201.0" width="9.9" height="9.9" fill="#FFF9C8" transform="rotate(-15.8 126.6 206.0)"></rect>
<rect x="112.5" y="202.7" width="6.7" height="6.7" fill="#FFF399" transform="rotate(-7.8 115.8 206.0)"></rect>
<rect x="99.4" y="201.4" width="8.8" height="8.8" fill="#FFF9C8" transform="rotate(4.5 103.8 205.7)"></rect>
<rect x="92.7" y="199.9" width="6.9" height="6.9" fill="#9AFF99" transform="rotate(-11.4 96.1 203.4)"></rect>
<rect x="60.7" y="200.3" width="9.8" height="9.8" fill="#FFF399" transform="rotate(-16.5 65.6 205.2)"></rect>
<rect x="39.8" y="200.7" width="7.4" height="7.4" fill="#FF2F2F" transform="rotate(-3.1 43.5 204.4)"></rect>
<rect x="31.0" y="201.6" width="8.1" height="8.1" fill="#FF2F2F" transform="rotate(-10.3 35.0 205.6)"></rect>
<rect x="312.7" y="213.0" width="7.2" height="7.2" fill="#99BBFF" transform="rotate(14.0 316.3 216.6)"></rect>
<rect x="302.7" y="209.0" width="8.6" height="8.6" fill="#BCFFBB" transform="rotate(-10.7 307.0 213.3)"></rect>
<rect x="290.6" y="209.9" width="6.9" height="6.9" fill="#FFF399" transform="rotate(10.4 294.0 213.3)"></rect>
<rect x="278.1" y="208.1" width="10.4" height="10.4" fill="#FFF399" transform="rotate(-13.1 283.3 213.3)"></rect>
<rect x="271.2" y="211.0" width="8.1" height="8.1" fill="#FF2F2F" transform="rotate(13.6 275.2 215.1)"></rect>
<rect x="260.4" y="210.8" width="7.7" height="7.7" fill="#99BBFF" transform="rotate(-3.0 264.3 214.6)"></rect>
<rect x="250.3" y="209.2" width="10.3" height="10.3" fill="#FF2F2F" transform="rotate(16.8 255.4 214.4)"></rect>
<rect x="243.6" y="210.0" width="6.6" height="6.6" fill="#4784FF" transform="rotate(-1.2 246.9 213.3)"></rect>
<rect x="230.1" y="209.5" width="10.3" height="10.3" fill="#FFF399" transform="rotate(10.0 235.3 214.7)"></rect>
<rect x="218.6" y="209.5" width="10.1" height="10.1" fill="#BCFFBB" transform="rotate(-9.3 223.7 214.5)"></rect>
<rect x="188.3" y="210.9" width="9.5" height="9.5" fill="#FFF399" transform="rotate(3.5 193.0 215.6)"></rect>
<rect x="171.7" y="213.0" width="7.0" height="7.0" fill="#9AFF99" transform="rotate(-14.5 175.2 216.5)"></rect>
<rect x="160.6" y="211.3" width="10.4" height="10.4" fill="#FFF9C8" transform="rotate(4.2 165.8 216.5)"></rect>
<rect x="150.5" y="210.8" width="7.3" height="7.3" fill="#9AFF99" transform="rotate(8.1 154.2 214.5)"></rect>
<rect x="142.9" y="211.0" width="7.8" height="7.8" fill="#FFF399" transform="rotate(-1.5 146.8 214.9)"></rect>
<rect x="129.1" y="209.5" width="9.4" height="9.4" fill="#FFF399" transform="rotate(9.9 133.7 214.1)"></rect>
<rect x="120.3" y="210.5" width="8.8" height="8.8" fill="#9AFF99" transform="rotate(3.7 124.7 215.0)"></rect>
<rect x="111.4" y="210.8" width="8.8" height="8.8" fill="#FFF399" transform="rotate(-17.8 115.8 215.2)"></rect>
<rect x="89.7" y="209.3" width="10.4" height="10.4" fill="#FFF399" transform="rotate(7.6 94.9 214.5)"></rect>
<rect x="81.6" y="211.8" width="7.2" height="7.2" fill="#9AFF99" transform="rotate(5.0 85.2 215.4)"></rect>
<rect x="69.8" y="210.1" width="10.5" height="10.5" fill="#FF99D8" transform="rotate(-4.1 75.0 215.3)"></rect>
<rect x="62.5" y="209.8" width="7.3" height="7.3" fill="#FFF9C8" transform="rotate(-5.5 66.1 213.4)"></rect>
<rect x="50.1" y="210.5" width="6.7" height="6.7" fill="#9AFF99" transform="rotate(-14.4 53.5 213.8)"></rect>
<rect x="42.5" y="212.5" width="8.0" height="8.0" fill="#FFF399" transform="rotate(-14.9 46.5 216.5)"></rect>
<rect x="29.6" y="210.5" width="10.3" height="10.3" fill="#FF2F2F" transform="rotate(-17.3 34.7 215.7)"></rect>
<rect x="309.9" y="218.8" width="10.3" height="10.3" fill="#99BBFF" transform="rotate(11.6 315.1 223.9)"></rect>
<rect x="290.8" y="222.0" width="6.8" height="6.8" fill="#9AFF99" transform="rotate(-12.4 294.2 225.4)"></rect>
<rect x="281.1" y="221.6" width="10.5" height="10.5" fill="#FFF399" transform="rotate(8.6 286.4 226.8)"></rect>
<rect x="270.5" y="220.9" width="6.9" height="6.9" fill="#9AFF99" transform="rotate(0.3 273.9 224.4)"></rect>
<rect x="261.9" y="219.1" width="10.0" height="10.0" fill="#FFF9C8" transform="rotate(16.9 266.9 224.1)"></rect>
<rect x="251.6" y="220.4" width="8.9" height="8.9" fill="#FFF399" transform="rotate(-2.1 256.1 224.9)"></rect>
<rect x="231.9" y="219.2" width="9.6" height="9.6" fill="#9AFF99" transform="rotate(-11.8 236.7 224.0)"></rect>
<rect x="220.0" y="220.3" width="8.3" height="8.3" fill="#FFF9C8" transform="rotate(-10.1 224.2 224.5)"></rect>
<rect x="211.3" y="221.6" width="10.3" height="10.3" fill="#99BBFF" transform="rotate(4.8 216.4 226.8)"></rect>
<rect x="202.7" y="222.1" width="8.0" height="8.0" fill="#4784FF" transform="rotate(-12.4 206.7 226.1)"></rect>
<rect x="179.5" y="219.7" width="8.7" height="8.7" fill="#FFF399" transform="rotate(-5.7 183.9 224.0)"></rect>
<rect x="172.5" y="220.0" width="8.0" height="8.0" fill="#BCFFBB" transform="rotate(2.0 176.4 224.0)"></rect>
<rect x="152.6" y="221.1" width="8.8" height="8.8" fill="#99BBFF" transform="rotate(-0.4 157.0 225.5)"></rect>
<rect x="139.5" y="222.2" width="8.3" height="8.3" fill="#99BBFF" transform="rotate(-5.9 143.6 226.3)"></rect>
<rect x="109.1" y="222.1" width="8.2" height="8.2" fill="#FFF399" transform="rotate(17.5 113.2 226.2)"></rect>
<rect x="98.5" y="217.9" width="10.3" height="10.3" fill="#4784FF" transform="rotate(15.3 103.6 223.0)"></rect>
<rect x="90.3" y="220.0" width="10.0" height="10.0" fill="#99BBFF" transform="rotate(5.8 95.3 225.0)"></rect>
<rect x="79.9" y="219.3" width="8.6" height="8.6" fill="#99BBFF" transform="rotate(15.3 84.2 223.6)"></rect>
<rect x="70.6" y="218.8" width="9.1" height="9.1" fill="#BCFFBB" transform="rotate(-0.9 75.2 223.4)"></rect>
<rect x="62.9" y="221.2" width="7.9" height="7.9" fill="#BCFFBB" transform="rotate(3.9 66.9 225.1)"></rect>
<rect x="52.4" y="219.3" width="8.3" height="8.3" fill="#BCFFBB" transform="rotate(-5.7 56.6 223.4)"></rect>
<rect x="41.1" y="220.9" width="7.6" height="7.6" fill="#BCFFBB" transform="rotate(6.1 44.9 224.7)"></rect>
<rect x="29.2" y="223.1" width="7.8" height="7.8" fill="#FF99D8" transform="rotate(-6.3 33.1 226.9)"></rect>
<rect x="21.4" y="220.9" width="9.2" height="9.2" fill="#FF2F2F" transform="rotate(13.1 25.9 225.5)"></rect>
<rect x="311.7" y="228.5" width="9.1" height="9.1" fill="#4784FF" transform="rotate(0.1 316.3 233.1)"></rect>
<rect x="300.4" y="230.8" width="8.9" height="8.9" fill="#FFF399" transform="rotate(-17.2 304.8 235.2)"></rect>
<rect x="270.2" y="228.7" width="10.0" height="10.0" fill="#FFF399" transform="rotate(-8.7 275.2 233.7)"></rect>
<rect x="262.4" y="232.2" width="7.4" height="7.4" fill="#FF99D8" transform="rotate(10.1 266.1 235.9)"></rect>
<rect x="230.4" y="231.8" width="9.5" height="9.5" fill="#FF99D8" transform="rotate(-3.4 235.2 236.5)"></rect>
<rect x="222.6" y="233.2" width="6.6" height="6.6" fill="#FFF399" transform="rotate(13.8 225.9 236.5)"></rect>
<rect x="209.4" y="231.0" width="7.2" height="7.2" fill="#99BBFF" transform="rotate(13.3 213.0 234.5)"></rect>
<rect x="203.0" y="232.3" width="7.6" height="7.6" fill="#99BBFF" transform="rotate(-15.2 206.8 236.1)"></rect>
<rect x="189.5" y="231.7" width="7.0" height="7.0" fill="#4784FF" transform="rotate(-3.7 193.0 235.2)"></rect>
<rect x="159.3" y="229.6" width="8.8" height="8.8" fill="#9AFF99" transform="rotate(0.2 163.7 234.0)"></rect>
<rect x="151.0" y="233.0" width="6.9" height="6.9" fill="#99BBFF" transform="rotate(16.5 154.4 236.5)"></rect>
<rect x="140.7" y="233.0" width="7.3" height="7.3" fill="#4784FF" transform="rotate(9.7 144.4 236.6)"></rect>
<rect x="129.0" y="230.0" width="9.9" height="9.9" fill="#FFF399" transform="rotate(15.1 133.9 235.0)"></rect>
<rect x="109.5" y="232.6" width="7.0" height="7.0" fill="#BCFFBB" transform="rotate(-17.0 113.0 236.1)"></rect>
<rect x="102.1" y="233.4" width="7.0" height="7.0" fill="#4784FF" transform="rotate(-9.1 105.6 236.9)"></rect>
<rect x="91.0" y="230.1" width="6.5" height="6.5" fill="#99BBFF" transform="rotate(11.5 94.2 233.4)"></rect>
<rect x="80.6" y="232.7" width="7.7" height="7.7" fill="#99BBFF" transform="rotate(-2.7 84.4 236.6)"></rect>
<rect x="61.8" y="231.1" width="8.8" height="8.8" fill="#FFF399" transform="rotate(7.0 66.2 235.4)"></rect>
<rect x="51.0" y="231.0" width="9.2" height="9.2" fill="#9AFF99" transform="rotate(1.4 55.6 235.6)"></rect>
<rect x="40.9" y="229.3" width="8.5" height="8.5" fill="#FFF9C8" transform="rotate(-12.9 45.2 233.5)"></rect>
<rect x="31.8" y="229.6" width="8.5" height="8.5" fill="#BCFFBB" transform="rotate(8.8 36.1 233.9)"></rect>
<rect x="22.8" y="233.2" width="7.2" height="7.2" fill="#99BBFF" transform="rotate(4.4 26.4 236.8)"></rect>
<rect x="312.2" y="242.6" width="7.4" height="7.4" fill="#4784FF" transform="rotate(8.8 316.0 246.3)"></rect>
<rect x="301.1" y="240.2" width="8.7" height="8.7" fill="#FFF399" transform="rotate(-9.9 305.5 244.6)"></rect>
<rect x="280.5" y="242.3" width="6.6" height="6.6" fill="#FFF399" transform="rotate(-16.5 283.7 245.6)"></rect>
<rect x="268.0" y="240.3" width="10.3" height="10.3" fill="#FF99D8" transform="rotate(11.0 273.1 245.5)"></rect>
<rect x="259.8" y="241.1" width="9.6" height="9.6" fill="#9AFF99" transform="rotate(-5.4 264.6 245.9)"></rect>
<rect x="251.9" y="239.8" width="8.0" height="8.0" fill="#FFF399" transform="rotate(16.4 255.9 243.8)"></rect>
<rect x="241.2" y="238.2" width="9.7" height="9.7" fill="#BCFFBB" transform="rotate(-12.0 246.1 243.1)"></rect>
<rect x="230.0" y="242.2" width="8.1" height="8.1" fill="#FFF399" transform="rotate(0.7 234.0 246.3)"></rect>
<rect x="219.7" y="243.0" width="6.7" height="6.7" fill="#9AFF99" transform="rotate(7.9 223.0 246.3)"></rect>
<rect x="209.7" y="242.1" width="9.8" height="9.8" fill="#FFF399" transform="rotate(3.7 214.6 247.0)"></rect>
<rect x="202.3" y="241.5" width="6.9" height="6.9" fill="#99BBFF" transform="rotate(8.1 205.7 244.9)"></rect>
<rect x="149.3" y="242.0" width="9.7" height="9.7" fill="#99BBFF" transform="rotate(11.1 154.2 246.9)"></rect>
<rect x="138.5" y="241.4" width="9.3" height="9.3" fill="#4784FF" transform="rotate(-14.3 143.2 246.0)"></rect>
<rect x="131.1" y="240.9" width="9.8" height="9.8" fill="#FFF399" transform="rotate(-1.1 136.0 245.8)"></rect>
<rect x="121.0" y="240.3" width="8.4" height="8.4" fill="#9AFF99" transform="rotate(-1.2 125.2 244.4)"></rect>
<rect x="108.7" y="242.5" width="8.8" height="8.8" fill="#FFF399" transform="rotate(1.6 113.1 246.9)"></rect>
<rect x="103.3" y="241.1" width="7.2" height="7.2" fill="#FFF399" transform="rotate(-13.0 106.9 244.7)"></rect>
<rect x="89.5" y="238.7" width="9.1" height="9.1" fill="#4784FF" transform="rotate(-3.7 94.1 243.2)"></rect>
<rect x="78.9" y="241.6" width="9.4" height="9.4" fill="#FF99D8" transform="rotate(7.0 83.6 246.3)"></rect>
<rect x="69.8" y="240.9" width="6.8" height="6.8" fill="#FFF9C8" transform="rotate(2.4 73.2 244.3)"></rect>
<rect x="32.0" y="239.8" width="8.1" height="8.1" fill="#BCFFBB" transform="rotate(8.9 36.1 243.8)"></rect>
<rect x="22.2" y="240.6" width="9.3" height="9.3" fill="#FF2F2F" transform="rotate(-6.4 26.8 245.3)"></rect>
<rect x="310.2" y="252.2" width="8.9" height="8.9" fill="#99BBFF" transform="rotate(0.6 314.7 256.7)"></rect>
<rect x="299.9" y="251.7" width="9.2" height="9.2" fill="#FF99D8" transform="rotate(-6.9 304.5 256.3)"></rect>
<rect x="293.0" y="251.5" width="7.4" height="7.4" fill="#9AFF99" transform="rotate(13.2 296.8 255.2)"></rect>
<rect x="282.2" y="249.8" width="7.8" height="7.8" fill="#FF99D8" transform="rotate(-16.7 286.1 253.7)"></rect>
<rect x="268.3" y="248.5" width="9.6" height="9.6" fill="#99BBFF" transform="rotate(-10.3 273.1 253.3)"></rect>
<rect x="261.0" y="249.6" width="7.6" height="7.6" fill="#99BBFF" transform="rotate(0.5 264.8 253.4)"></rect>
<rect x="249.9" y="251.0" width="9.2" height="9.2" fill="#FF2F2F" transform="rotate(-17.4 254.5 255.5)"></rect>
<rect x="238.9" y="251.9" width="8.6" height="8.6" fill="#FFF399" transform="rotate(-17.0 243.2 256.2)"></rect>
<rect x="229.7" y="249.3" width="7.6" height="7.6" fill="#FFF9C8" transform="rotate(-8.4 233.5 253.1)"></rect>
<rect x="219.2" y="248.4" width="10.0" height="10.0" fill="#BCFFBB" transform="rotate(2.8 224.2 253.4)"></rect>
<rect x="211.0" y="251.4" width="7.6" height="7.6" fill="#9AFF99" transform="rotate(-14.3 214.8 255.2)"></rect>
<rect x="203.2" y="251.8" width="7.1" height="7.1" fill="#FF99D8" transform="rotate(-6.2 206.8 255.3)"></rect>
<rect x="190.6" y="251.9" width="7.5" height="7.5" fill="#BCFFBB" transform="rotate(10.2 194.3 255.6)"></rect>
<rect x="171.3" y="249.2" width="8.1" height="8.1" fill="#FFF399" transform="rotate(0.0 175.3 253.3)"></rect>
<rect x="148.0" y="248.1" width="10.1" height="10.1" fill="#FFF399" transform="rotate(6.7 153.1 253.2)"></rect>
<rect x="101.9" y="249.1" width="8.1" height="8.1" fill="#FFF399" transform="rotate(15.3 105.9 253.1)"></rect>
<rect x="92.2" y="251.0" width="9.6" height="9.6" fill="#FF99D8" transform="rotate(-9.2 97.0 255.8)"></rect>
<rect x="72.3" y="250.2" width="7.0" height="7.0" fill="#9AFF99" transform="rotate(1.8 75.8 253.7)"></rect>
<rect x="62.0" y="252.4" width="7.3" height="7.3" fill="#FFF399" transform="rotate(-15.2 65.7 256.0)"></rect>
<rect x="32.5" y="250.9" width="7.3" height="7.3" fill="#BCFFBB" transform="rotate(1.7 36.1 254.5)"></rect>
<rect x="21.7" y="250.8" width="6.9" height="6.9" fill="#4784FF" transform="rotate(-12.5 25.2 254.2)"></rect>
<rect x="309.7" y="260.4" width="6.8" height="6.8" fill="#4784FF" transform="rotate(-11.6 313.1 263.8)"></rect>
<rect x="288.3" y="261.1" width="9.9" height="9.9" fill="#BCFFBB" transform="rotate(3.1 293.2 266.1)"></rect>
<rect x="281.5" y="260.5" width="9.4" height="9.4" fill="#4784FF" transform="rotate(-2.6 286.2 265.1)"></rect>
<rect x="240.6" y="262.1" width="8.7" height="8.7" fill="#FF2F2F" transform="rotate(-8.5 245.0 266.5)"></rect>
<rect x="231.6" y="260.3" width="9.2" height="9.2" fill="#99BBFF" transform="rotate(17.9 236.2 264.9)"></rect>
<rect x="220.0" y="260.1" width="9.5" height="9.5" fill="#4784FF" transform="rotate(-17.0 224.7 264.8)"></rect>
<rect x="210.3" y="260.0" width="6.9" height="6.9" fill="#FFF399" transform="rotate(5.2 213.8 263.5)"></rect>
<rect x="202.5" y="259.1" width="8.1" height="8.1" fill="#FF99D8" transform="rotate(2.1 206.5 263.2)"></rect>
<rect x="189.3" y="260.3" width="10.4" height="10.4" fill="#9AFF99" transform="rotate(-15.8 194.5 265.5)"></rect>
<rect x="182.3" y="262.2" width="8.9" height="8.9" fill="#BCFFBB" transform="rotate(-16.7 186.8 266.6)"></rect>
<rect x="170.4" y="262.0" width="9.9" height="9.9" fill="#FFF399" transform="rotate(6.8 175.3 266.9)"></rect>
<rect x="158.1" y="261.2" width="10.2" height="10.2" fill="#9AFF99" transform="rotate(-4.5 163.2 266.3)"></rect>
<rect x="139.3" y="261.7" width="7.7" height="7.7" fill="#FFF9C8" transform="rotate(-12.4 143.1 265.5)"></rect>
<rect x="133.1" y="261.8" width="7.7" height="7.7" fill="#FF99D8" transform="rotate(-1.2 136.9 265.7)"></rect>
<rect x="123.2" y="260.7" width="7.3" height="7.3" fill="#FFF399" transform="rotate(12.1 126.9 264.3)"></rect>
<rect x="90.9" y="260.7" width="7.6" height="7.6" fill="#FFF399" transform="rotate(-13.0 94.7 264.5)"></rect>
<rect x="78.1" y="260.1" width="10.2" height="10.2" fill="#FFF399" transform="rotate(-5.8 83.2 265.2)"></rect>
<rect x="71.4" y="262.7" width="7.5" height="7.5" fill="#FFF9C8" transform="rotate(-4.7 75.1 266.4)"></rect>
<rect x="49.3" y="259.4" width="9.0" height="9.0" fill="#9AFF99" transform="rotate(16.5 53.8 263.9)"></rect>
<rect x="39.8" y="260.3" width="7.6" height="7.6" fill="#FF2F2F" transform="rotate(-17.8 43.6 264.1)"></rect>
<rect x="31.7" y="258.7" width="10.2" height="10.2" fill="#FF2F2F" transform="rotate(7.0 36.8 263.8)"></rect>
<rect x="308.9" y="271.5" width="9.0" height="9.0" fill="#4784FF" transform="rotate(-7.4 313.4 276.0)"></rect>
<rect x="300.8" y="269.7" width="7.8" height="7.8" fill="#FF2F2F" transform="rotate(-6.6 304.7 273.6)"></rect>
<rect x="290.5" y="270.6" width="8.0" height="8.0" fill="#99BBFF" transform="rotate(-11.1 294.5 274.6)"></rect>
<rect x="212.2" y="270.5" width="7.3" height="7.3" fill="#FF2F2F" transform="rotate(-2.0 215.9 274.2)"></rect>
<rect x="203.4" y="273.2" width="6.7" height="6.7" fill="#99BBFF" transform="rotate(8.2 206.7 276.6)"></rect>
<rect x="171.6" y="270.4" width="7.1" height="7.1" fill="#FFF399" transform="rotate(-0.7 175.2 273.9)"></rect>
<rect x="152.3" y="272.0" width="6.7" height="6.7" fill="#9AFF99" transform="rotate(10.8 155.7 275.3)"></rect>
<rect x="141.2" y="270.2" width="6.9" height="6.9" fill="#FF99D8" transform="rotate(-15.7 144.7 273.6)"></rect>
<rect x="132.0" y="270.0" width="7.9" height="7.9" fill="#9AFF99" transform="rotate(-7.2 136.0 273.9)"></rect>
<rect x="120.8" y="271.2" width="8.8" height="8.8" fill="#9AFF99" transform="rotate(11.2 125.2 275.6)"></rect>
<rect x="110.4" y="269.7" width="6.8" height="6.8" fill="#BCFFBB" transform="rotate(-2.6 113.8 273.1)"></rect>
<rect x="99.6" y="268.5" width="9.4" height="9.4" fill="#FF99D8" transform="rotate(-14.4 104.3 273.2)"></rect>
<rect x="92.5" y="269.6" width="7.9" height="7.9" fill="#99BBFF" transform="rotate(14.5 96.4 273.6)"></rect>
<rect x="80.0" y="269.4" width="7.2" height="7.2" fill="#FF2F2F" transform="rotate(-11.4 83.6 273.0)"></rect>
<rect x="68.9" y="268.6" width="9.2" height="9.2" fill="#4784FF" transform="rotate(-2.7 73.5 273.1)"></rect>
<rect x="59.8" y="271.4" width="7.7" height="7.7" fill="#4784FF" transform="rotate(-10.7 63.7 275.2)"></rect>
<rect x="51.5" y="271.0" width="10.0" height="10.0" fill="#99BBFF" transform="rotate(-10.8 56.5 276.0)"></rect>
<rect x="190.4" y="279.9" width="9.5" height="9.5" fill="#4784FF" transform="rotate(11.7 195.1 284.6)"></rect>
<rect x="181.7" y="280.2" width="8.5" height="8.5" fill="#FF2F2F" transform="rotate(7.8 185.9 284.5)"></rect>
<rect x="172.8" y="279.8" width="7.2" height="7.2" fill="#4784FF" transform="rotate(1.8 176.4 283.4)"></rect>
<rect x="158.4" y="280.5" width="10.1" height="10.1" fill="#4784FF" transform="rotate(-14.0 163.5 285.6)"></rect>
<rect x="148.9" y="278.8" width="10.3" height="10.3" fill="#4784FF" transform="rotate(17.4 154.0 283.9)"></rect>
<rect x="130.0" y="280.0" width="7.6" height="7.6" fill="#99BBFF" transform="rotate(7.2 133.8 283.8)"></rect>
<rect x="120.4" y="282.9" width="6.6" height="6.6" fill="#99BBFF" transform="rotate(-14.0 123.7 286.2)"></rect>
<rect x="111.7" y="279.6" width="9.9" height="9.9" fill="#FF2F2F" transform="rotate(-0.1 116.6 284.6)"></rect>
<rect x="129.2" y="17.2" width="9.7" height="9.7" fill="#4784FF" transform="rotate(0.0 134.1 22.1)"></rect>
<rect x="140.0" y="15.1" width="9.3" height="9.3" fill="#9AFF99" transform="rotate(7.8 144.7 19.8)"></rect>
<rect x="130.3" y="27.1" width="10.3" height="10.3" fill="#4784FF" transform="rotate(2.2 135.5 32.3)"></rect>
<rect x="142.1" y="26.4" width="8.4" height="8.4" fill="#BCFFBB" transform="rotate(-14.9 146.3 30.6)"></rect>
<rect x="132.5" y="36.8" width="7.5" height="7.5" fill="#4784FF" transform="rotate(14.3 136.2 40.6)"></rect>
<rect x="137.8" y="34.2" width="10.4" height="10.4" fill="#FFF9C8" transform="rotate(-3.0 143.0 39.4)"></rect>
<rect x="130.0" y="45.0" width="8.6" height="8.6" fill="#FF2F2F" transform="rotate(10.4 134.3 49.3)"></rect>
<rect x="140.1" y="46.8" width="6.6" height="6.6" fill="#9AFF99" transform="rotate(-7.9 143.4 50.1)"></rect>
<rect x="129.0" y="57.6" width="9.6" height="9.6" fill="#FF2F2F" transform="rotate(-7.5 133.8 62.4)"></rect>
<rect x="142.0" y="56.5" width="8.2" height="8.2" fill="#9AFF99" transform="rotate(-14.6 146.1 60.6)"></rect>
<rect x="129.6" y="67.1" width="9.6" height="9.6" fill="#99BBFF" transform="rotate(-13.2 134.5 71.9)"></rect>
<rect x="142.0" y="67.4" width="9.1" height="9.1" fill="#9AFF99" transform="rotate(-5.5 146.5 71.9)"></rect>
<rect x="132.0" y="75.6" width="7.5" height="7.5" fill="#4784FF" transform="rotate(-1.7 135.7 79.4)"></rect>
<rect x="141.7" y="76.4" width="9.1" height="9.1" fill="#FFF9C8" transform="rotate(-9.1 146.2 80.9)"></rect>
<rect x="130.6" y="87.6" width="7.8" height="7.8" fill="#99BBFF" transform="rotate(-2.3 134.5 91.5)"></rect>
<rect x="142.4" y="88.0" width="6.9" height="6.9" fill="#FFF399" transform="rotate(12.6 145.8 91.5)"></rect>
<rect x="132.4" y="99.3" width="6.7" height="6.7" fill="#4784FF" transform="rotate(-8.9 135.7 102.7)"></rect>
<rect x="140.0" y="97.1" width="7.1" height="7.1" fill="#BCFFBB" transform="rotate(0.7 143.5 100.7)"></rect>
<rect x="131.9" y="107.8" width="7.6" height="7.6" fill="#4784FF" transform="rotate(6.1 135.7 111.6)"></rect>
<rect x="141.3" y="108.8" width="7.2" height="7.2" fill="#FF99D8" transform="rotate(-11.9 144.9 112.4)"></rect>
<rect x="132.5" y="116.5" width="8.6" height="8.6" fill="#FF2F2F" transform="rotate(3.1 136.8 120.8)"></rect>
<rect x="141.8" y="117.6" width="8.4" height="8.4" fill="#FFF9C8" transform="rotate(3.7 146.0 121.8)"></rect>
<rect x="130.4" y="126.7" width="9.0" height="9.0" fill="#FF2F2F" transform="rotate(-14.0 134.9 131.2)"></rect>
<rect x="143.1" y="129.1" width="7.6" height="7.6" fill="#BCFFBB" transform="rotate(-12.3 147.0 132.9)"></rect>
<rect x="128.3" y="135.4" width="10.2" height="10.2" fill="#4784FF" transform="rotate(2.1 133.4 140.4)"></rect>
<rect x="140.0" y="135.0" width="9.3" height="9.3" fill="#FFF399" transform="rotate(-2.1 144.7 139.7)"></rect>
<rect x="130.4" y="145.3" width="8.1" height="8.1" fill="#4784FF" transform="rotate(5.9 134.4 149.4)"></rect>
<rect x="140.3" y="145.4" width="7.6" height="7.6" fill="#FFF399" transform="rotate(0.6 144.1 149.2)"></rect>
<rect x="121.8" y="8.8" width="8.1" height="8.1" fill="#99BBFF" transform="rotate(-4.1 125.8 12.8)"></rect>
<rect x="109.4" y="7.2" width="9.7" height="9.7" fill="#4784FF" transform="rotate(9.2 114.3 12.1)"></rect>
<rect x="99.3" y="5.9" width="10.0" height="10.0" fill="#FF2F2F" transform="rotate(-0.9 104.3 10.9)"></rect>
<rect x="90.2" y="7.6" width="6.7" height="6.7" fill="#99BBFF" transform="rotate(-10.4 93.6 11.0)"></rect>
<rect x="122.2" y="18.3" width="6.5" height="6.5" fill="#9AFF99" transform="rotate(7.7 125.5 21.5)"></rect>
<rect x="112.8" y="16.8" width="6.6" height="6.6" fill="#FFF399" transform="rotate(1.6 116.1 20.1)"></rect>
<rect x="100.8" y="18.4" width="8.9" height="8.9" fill="#FFF9C8" transform="rotate(-10.1 105.3 22.8)"></rect>
<rect x="88.6" y="14.4" width="9.1" height="9.1" fill="#FF99D8" transform="rotate(7.0 93.1 19.0)"></rect>
<rect x="128.3" y="6.7" width="9.9" height="9.9" fill="#4784FF" transform="rotate(-5.2 133.2 11.7)"></rect>
<rect x="140.8" y="7.8" width="10.3" height="10.3" fill="#4784FF" transform="rotate(-0.5 146.0 13.0)"></rect>
<rect x="78.1" y="4.9" width="12.6" height="12.6" fill="#99BBFF" transform="rotate(6.3 84.4 11.2)"></rect>
<rect x="77.8" y="18.8" width="10.2" height="10.2" fill="#4784FF" transform="rotate(14.1 82.9 23.9)"></rect>
<rect x="18" y="180" width="7" height="7" fill="#99BBFF" transform="rotate(14 21.5 183.5)"></rect>
<rect x="8" y="152" width="5" height="5" fill="#BCFFBB" transform="rotate(7 10.5 154.5)"></rect>
<rect x="22" y="130" width="4" height="4" fill="#99BBFF" transform="rotate(0 24 132)"></rect>
<rect x="12" y="110" width="4" height="4" fill="#FF99D8" transform="rotate(-7 14 112)"></rect>
<rect x="56" y="30" width="5" height="5" fill="#99BBFF" transform="rotate(-14 58.5 32.5)"></rect>
<rect x="46" y="14" width="4" height="4" fill="#FFF399" transform="rotate(-21 48 16)"></rect>
<rect x="300" y="100" width="5" height="5" fill="#9AFF99" transform="rotate(-28 302.5 102.5)"></rect>
<rect x="40" y="265" width="4" height="4" fill="#FF2F2F" transform="rotate(-35 42 267)"></rect>
</svg>