<svg width="204" height="204" viewBox="0 0 204 204" xmlns="http://www.w3.org/2000/svg" xmlns:c2pa="http://c2pa.org/manifest"><metadata><c2pa:manifest>AAAWgmp1bWIAAAAeanVtZGMycGEAEQAQgAAAqgA4m3EDYzJwYQAAABZcanVtYgAAAEdqdW1kYzJtYQARABCAAACqADibcQN1cm46YzJwYTo3MzljODRiOC1iMWJhLTRiYTctODRkNS0yNzQzNjRhNWY0NDgAAAADl2p1bWIAAAApanVtZGMyYXMAEQAQgAAAqgA4m3EDYzJwYS5hc3NlcnRpb25zAAAAALxqdW1iAAAARGp1bWRjYm9yABEAEIAAAKoAOJtxE2MycGEuaW5ncmVkaWVudC52MwAAAAAYYzJzaATLWxWEIHCJALm/qmc1f8IAAABwY2JvcqNpZGM6Zm9ybWF0bWltYWdlL3N2Zyt4bWxqaW5zdGFuY2VJRHgseG1wOmlpZDphYzMwYzQxMy01ZTFiLTQ0YzUtOWMwZi03ZGIyNWQyNDU5YjVscmVsYXRpb25zaGlwaHBhcmVudE9mAAAB4mp1bWIAAABBanVtZGNib3IAEQAQgAAAqgA4m3ETYzJwYS5hY3Rpb25zLnYyAAAAABhjMnNodHhikA5KmkaXT/SVIWFd1wAAAZljYm9yomdhY3Rpb25zgqJmYWN0aW9ua2MycGEub3BlbmVkanBhcmFtZXRlcnOha2luZ3JlZGllbnRzgaJjdXJseC1zZWxmI2p1bWJmPWMycGEuYXNzZXJ0aW9ucy9jMnBhLmluZ3JlZGllbnQudjNkaGFzaFggWvEMDT9aq//08Qn7WoMuz41qjSOE393mOafTesJzhUukZmFjdGlvbngdY29tLmFudGhyb3BpYy5jbGF1ZGUucHJvdmlkZWRqcGFyYW1ldGVyc6F4H2NvbS5hbnRocm9waWMub3JpZ2luLWNvbmZpZGVuY2VndW5rbm93bmtkZXNjcmlwdGlvbnhmQ2xhdWRlIHByb3ZpZGVkIHRoaXMgZmlsZSBhdCB0aGUgcmVxdWVzdCBvZiBhIHVzZXIgYW5kIG1heSBoYXZlIGNyZWF0ZWQgb3IgbW9kaWZpZWQgdGhlIGZpbGUgY29udGVudHMubXNvZnR3YXJlQWdlbnShZG5hbWVmQ2xhdWRlcmFsbEFjdGlvbnNJbmNsdWRlZPUAAADIanVtYgAAAEBqdW1kY2JvcgARABCAAACqADibcRNjMnBhLmhhc2guZGF0YQAAAAAYYzJzaLpex4NViQuZ/cCyE0hJiHYAAACAY2JvcqVjYWxnZnNoYTI1NmNwYWRNAAAAAAAAAAAAAAAAAGRoYXNoWCAvOeTvgblhBKWASoiZf4DisiRVSxuKOHuSVCnzZ7ZBhmRuYW1lbmp1bWJmIG1hbmlmZXN0amV4Y2x1c2lvbnOBomVzdGFydBiWZmxlbmd0aBkeBAAAAj5qdW1iAAAAJ2p1bWRjMmNsABEAEIAAAKoAOJtxA2MycGEuY2xhaW0udjIAAAACD2Nib3KlY2FsZ2ZzaGEyNTZpc2lnbmF0dXJleE1zZWxmI2p1bWJmPS9jMnBhL3VybjpjMnBhOjczOWM4NGI4LWIxYmEtNGJhNy04NGQ1LTI3NDM2NGE1ZjQ0OC9jMnBhLnNpZ25hdHVyZWppbnN0YW5jZUlEeCx4bXA6aWlkOjhmYWI1ZWQyLTU1ZjAtNGZmNi05YzZiLWZmY2VkMDk4YWY1N3JjcmVhdGVkX2Fzc2VydGlvbnODomN1cmx4LXNlbGYjanVtYmY9YzJwYS5hc3NlcnRpb25zL2MycGEuaW5ncmVkaWVudC52M2RoYXNoWCBa8QwNP1qr//TxCftagy7PjWqNI4Tf3eY5p9N6wnOFS6JjdXJseCpzZWxmI2p1bWJmPWMycGEuYXNzZXJ0aW9ucy9jMnBhLmFjdGlvbnMudjJkaGFzaFggOB7/iWeebNdmtpdZm/AK8oZIY6NbkT0TAhTmd7Ry7AyiY3VybHgpc2VsZiNqdW1iZj1jMnBhLmFzc2VydGlvbnMvYzJwYS5oYXNoLmRhdGFkaGFzaFggpD9p2L70a9YTS3Q2LHwzIIsiJiTwNyslReZVY+8Xv0x0Y2xhaW1fZ2VuZXJhdG9yX2luZm+jZG5hbWVvQW50aHJvcGljIEZpbGVzZ3ZlcnNpb25lMS4wLjBrc3BlY1ZlcnNpb25lMi40LjAAABA4anVtYgAAAChqdW1kYzJjcwARABCAAACqADibcQNjMnBhLnNpZ25hdHVyZQAAABAIY2JvctKEWQISogEmGCFZAgowggIGMIIBjaADAgECAhRA5aAK7sI50L64g/oGQgU9Z1UTADAKBggqhkjOPQQDAzBJMRcwFQYDVQQKEw5BbnRocm9waWMsIFBCQzEuMCwGA1UEAxMlQW50aHJvcGljIENvbnRlbnQgQ3JlZGVudGlhbHMgUm9vdCBDQTAeFw0yNjA4MDcxODQzNTZaFw0yODA4MDYxOTQzNTZaMEQxFzAVBgNVBAoTDkFudGhyb3BpYywgUEJDMSkwJwYDVQQDEyBBbnRocm9waWMgQ2xhdWRlIENvbnRlbnQgU2lnbmluZzBZMBMGByqGSM49AgEGCCqGSM49AwEHA0IABJh6CmvLUBgFFNU0vUKlOVtE6djd17L5SuwX0LemFisBM3dkd/3cyjxFA3Qo5S46fX0/ihY0VZ7mfb9KF703t5OjWDBWMA4GA1UdDwEB/wQEAwIHgDAVBgNVHSUEDjAMBgorBgEEAYPoXgIBMAwGA1UdEwEB/wQCMAAwHwYDVR0jBBgwFoAUzlHiBIFOZFsj+OPEz5o+nMHXXMIwCgYIKoZIzj0EAwMDZwAwZAIwMXMdFJ4BetLLVY7ORuE9noqbbAZOZn/aArXyTwFAZfKrPzxF2vPoJNf1+UCdg1XGAjBwX1zd9WGqYkqmL5SFqw1QySjr1zJfpJM9+1rdDwSPLMOPOjKuiXjoU/pUUeG9RwmhY3BhZFkNngAAAAAAAAAAAAAAAAAAAAAAAAAAAAAAAAAAAAAAAAAAAAAAAAAAAAAAAAAAAAAAAAAAAAAAAAAAAAAAAAAAAAAAAAAAAAAAAAAAAAAAAAAAAAAAAAAAAAAAAAAAAAAAAAAAAAAAAAAAAAAAAAAAAAAAAAAAAAAAAAAAAAAAAAAAAAAAAAAAAAAAAAAAAAAAAAAAAAAAAAAAAAAAAAAAAAAAAAAAAAAAAAAAAAAAAAAAAAAAAAAAAAAAAAAAAAAAAAAAAAAAAAAAAAAAAAAAAAAAAAAAAAAAAAAAAAAAAAAAAAAAAAAAAAAAAAAAAAAAAAAAAAAAAAAAAAAAAAAAAAAAAAAAAAAAAAAAAAAAAAAAAAAAAAAAAAAAAAAAAAAAAAAAAAAAAAAAAAAAAAAAAAAAAAAAAAAAAAAAAAAAAAAAAAAAAAAAAAAAAAAAAAAAAAAAAAAAAAAAAAAAAAAAAAAAAAAAAAAAAAAAAAAAAAAAAAAAAAAAAAAAAAAAAAAAAAAAAAAAAAAAAAAAAAAAAAAAAAAAAAAAAAAAAAAAAAAAAAAAAAAAAAAAAAAAAAAAAAAAAAAAAAAAAAAAAAAAAAAAAAAAAAAAAAAAAAAAAAAAAAAAAAAAAAAAAAAAAAAAAAAAAAAAAAAAAAAAAAAAAAAAAAAAAAAAAAAAAAAAAAAAAAAAAAAAAAAAAAAAAAAAAAAAAAAAAAAAAAAAAAAAAAAAAAAAAAAAAAAAAAAAAAAAAAAAAAAAAAAAAAAAAAAAAAAAAAAAAAAAAAAAAAAAAAAAAAAAAAAAAAAAAAAAAAAAAAAAAAAAAAAAAAAAAAAAAAAAAAAAAAAAAAAAAAAAAAAAAAAAAAAAAAAAAAAAAAAAAAAAAAAAAAAAAAAAAAAAAAAAAAAAAAAAAAAAAAAAAAAAAAAAAAAAAAAAAAAAAAAAAAAAAAAAAAAAAAAAAAAAAAAAAAAAAAAAAAAAAAAAAAAAAAAAAAAAAAAAAAAAAAAAAAAAAAAAAAAAAAAAAAAAAAAAAAAAAAAAAAAAAAAAAAAAAAAAAAAAAAAAAAAAAAAAAAAAAAAAAAAAAAAAAAAAAAAAAAAAAAAAAAAAAAAAAAAAAAAAAAAAAAAAAAAAAAAAAAAAAAAAAAAAAAAAAAAAAAAAAAAAAAAAAAAAAAAAAAAAAAAAAAAAAAAAAAAAAAAAAAAAAAAAAAAAAAAAAAAAAAAAAAAAAAAAAAAAAAAAAAAAAAAAAAAAAAAAAAAAAAAAAAAAAAAAAAAAAAAAAAAAAAAAAAAAAAAAAAAAAAAAAAAAAAAAAAAAAAAAAAAAAAAAAAAAAAAAAAAAAAAAAAAAAAAAAAAAAAAAAAAAAAAAAAAAAAAAAAAAAAAAAAAAAAAAAAAAAAAAAAAAAAAAAAAAAAAAAAAAAAAAAAAAAAAAAAAAAAAAAAAAAAAAAAAAAAAAAAAAAAAAAAAAAAAAAAAAAAAAAAAAAAAAAAAAAAAAAAAAAAAAAAAAAAAAAAAAAAAAAAAAAAAAAAAAAAAAAAAAAAAAAAAAAAAAAAAAAAAAAAAAAAAAAAAAAAAAAAAAAAAAAAAAAAAAAAAAAAAAAAAAAAAAAAAAAAAAAAAAAAAAAAAAAAAAAAAAAAAAAAAAAAAAAAAAAAAAAAAAAAAAAAAAAAAAAAAAAAAAAAAAAAAAAAAAAAAAAAAAAAAAAAAAAAAAAAAAAAAAAAAAAAAAAAAAAAAAAAAAAAAAAAAAAAAAAAAAAAAAAAAAAAAAAAAAAAAAAAAAAAAAAAAAAAAAAAAAAAAAAAAAAAAAAAAAAAAAAAAAAAAAAAAAAAAAAAAAAAAAAAAAAAAAAAAAAAAAAAAAAAAAAAAAAAAAAAAAAAAAAAAAAAAAAAAAAAAAAAAAAAAAAAAAAAAAAAAAAAAAAAAAAAAAAAAAAAAAAAAAAAAAAAAAAAAAAAAAAAAAAAAAAAAAAAAAAAAAAAAAAAAAAAAAAAAAAAAAAAAAAAAAAAAAAAAAAAAAAAAAAAAAAAAAAAAAAAAAAAAAAAAAAAAAAAAAAAAAAAAAAAAAAAAAAAAAAAAAAAAAAAAAAAAAAAAAAAAAAAAAAAAAAAAAAAAAAAAAAAAAAAAAAAAAAAAAAAAAAAAAAAAAAAAAAAAAAAAAAAAAAAAAAAAAAAAAAAAAAAAAAAAAAAAAAAAAAAAAAAAAAAAAAAAAAAAAAAAAAAAAAAAAAAAAAAAAAAAAAAAAAAAAAAAAAAAAAAAAAAAAAAAAAAAAAAAAAAAAAAAAAAAAAAAAAAAAAAAAAAAAAAAAAAAAAAAAAAAAAAAAAAAAAAAAAAAAAAAAAAAAAAAAAAAAAAAAAAAAAAAAAAAAAAAAAAAAAAAAAAAAAAAAAAAAAAAAAAAAAAAAAAAAAAAAAAAAAAAAAAAAAAAAAAAAAAAAAAAAAAAAAAAAAAAAAAAAAAAAAAAAAAAAAAAAAAAAAAAAAAAAAAAAAAAAAAAAAAAAAAAAAAAAAAAAAAAAAAAAAAAAAAAAAAAAAAAAAAAAAAAAAAAAAAAAAAAAAAAAAAAAAAAAAAAAAAAAAAAAAAAAAAAAAAAAAAAAAAAAAAAAAAAAAAAAAAAAAAAAAAAAAAAAAAAAAAAAAAAAAAAAAAAAAAAAAAAAAAAAAAAAAAAAAAAAAAAAAAAAAAAAAAAAAAAAAAAAAAAAAAAAAAAAAAAAAAAAAAAAAAAAAAAAAAAAAAAAAAAAAAAAAAAAAAAAAAAAAAAAAAAAAAAAAAAAAAAAAAAAAAAAAAAAAAAAAAAAAAAAAAAAAAAAAAAAAAAAAAAAAAAAAAAAAAAAAAAAAAAAAAAAAAAAAAAAAAAAAAAAAAAAAAAAAAAAAAAAAAAAAAAAAAAAAAAAAAAAAAAAAAAAAAAAAAAAAAAAAAAAAAAAAAAAAAAAAAAAAAAAAAAAAAAAAAAAAAAAAAAAAAAAAAAAAAAAAAAAAAAAAAAAAAAAAAAAAAAAAAAAAAAAAAAAAAAAAAAAAAAAAAAAAAAAAAAAAAAAAAAAAAAAAAAAAAAAAAAAAAAAAAAAAAAAAAAAAAAAAAAAAAAAAAAAAAAAAAAAAAAAAAAAAAAAAAAAAAAAAAAAAAAAAAAAAAAAAAAAAAAAAAAAAAAAAAAAAAAAAAAAAAAAAAAAAAAAAAAAAAAAAAAAAAAAAAAAAAAAAAAAAAAAAAAAAAAAAAAAAAAAAAAAAAAAAAAAAAAAAAAAAAAAAAAAAAAAAAAAAAAAAAAAAAAAAAAAAAAAAAAAAAAAAAAAAAAAAAAAAAAAAAAAAAAAAAAAAAAAAAAAAAAAAAAAAAAAAAAAAAAAAAAAAAAAAAAAAAAAAAAAAAAAAAAAAAAAAAAAAAAAAAAAAAAAAAAAAAAAAAAAAAAAAAAAAAAAAAAAAAAAAAAAAAAAAAAAAAAAAAAAAAAAAAAAAAAAAAAAAAAAAAAAAAAAAAAAAAAAAAAAAAAAAAAAAAAAAAAAAAAAAAAAAAAAAAAAAAAAAAAAAAAAAAAAAAAAAAAAAAAAAAAAAAAAAAAAAAAAAAAAAAAAAAAAAAAAAAAAAAAAAAAAAAAAAAAAAAAAAAAAAAAAAAAAAAAAAAAAAAAAAAAAAAAAAAAAAAAAAAAAAAAAAAAAAAAAAAAAAAAAAAAAAAAAAAAAAAAAAAAAAAAAAAAAAAAAAAAAAAAAAAAAAAAAAAAAAAAAAAAAAAAAAAAAAAAAAAAAAAAAAAAAAAAAAAAAAAAAAAAAAAAAAAAAAAAAAAAAAAAAAAAAAAAAAAAAAAAAAAAAAAAAAAAAAAAAAAAAAAAAAAAAAAAAAAAAAAAAAAAAAAAAAAAAAAAAAAAAAAAAAAAAAAAAAAAAAAAAAAAAAAAAAAAAAAAAAAAAAAAAAAAAAAAAAAAAAAAAAAAAAAAAAAAAAAAAAAAAAAAAAAAAAAAAAAAAAAAAAAAAAAAAAAAAAAAAAAAAAAAAAAAAAAAAAAAAAAAAAAAAAAAAAAAAAAAAAAAAAAAAAAAAAAAAAAAAAAAAAAAAAAAAAAAAAAAAAAAAAAAAAAAAAAAAAAAAAAAAAAAAAAAAAAAAAAAAAAAAAAAAAAAAAAAAAAAAAAAAAAAAAAAAAAAAAAAAAAAAAAAAAAAAAAAAAAAAAAAAAAAAAAAAAAAAAAAAAAAAAAAAAAAAAAAAAAAAAAAAAAAAAAAAAAAAAAAAAAAAAAAAAAAAAAAAAAAAAAAAAAAAAAAAAAAAAAAAAAAAAAAAAAAAAAAAAAAAAAAAAAAAAAAAAAAAAAAAAAAAAAAAAAAAAAAAAAAAAAAAAAAAAAAAAAAAAAAAAAAAAAAAAAAAAAAAAAAAAAAAAAAAAAAAAAAAAAAAAAAAAAAAAAAAAAAAAAAAAAAAAAAAAAAAAAAAAAAAAAAAAAAAAAAAAAAAAAAAAAAAAAAAAAAAAAAAAAAAAAAAAAAAAAAAAAAAAAAAAAAAAAAAAAAAAAAAAAAAAAAAAAAAAAAAAAAAAAAAAAAAAAAAAAAAAAAAAAAAAAAAAAAAAAAAAAAAAAAAAAAAAAAAAAAAAAAAAAAAAAAAAAAAAAAAAAAAAAAAAAAAAAAAAAAAAAAAAAAAAAAAAAAAAAAAAAAAAAAAAAAAAAAAAAAAAAAAAAAAAAAAAPZYQFPnHAW/dzXaAVSGHiScCJYSyywgxVFwaMpiHw5XzmEIzMKr/Rshgi6ZzLNjMLf8MrbvjVtiQ0IiR6bbaMakbdg=</c2pa:manifest></metadata>
<rect x="8.6" y="6.2" width="8.8" height="8.8" fill="#4784FF" transform="rotate(-7.6 13.0 10.5)"></rect>
<rect x="29.4" y="5.1" width="11.3" height="11.3" fill="#4784FF" transform="rotate(-8.1 35.0 10.7)"></rect>
<rect x="42.9" y="6.5" width="11.4" height="11.4" fill="#4784FF" transform="rotate(-11.0 48.6 12.2)"></rect>
<rect x="66.1" y="6.9" width="9.2" height="9.2" fill="#4784FF" transform="rotate(-2.1 70.7 11.5)"></rect>
<rect x="79.1" y="7.6" width="9.8" height="9.8" fill="#4784FF" transform="rotate(-6.9 84.0 12.5)"></rect>
<rect x="89.5" y="8.7" width="10.0" height="10.0" fill="#4784FF" transform="rotate(6.5 94.5 13.7)"></rect>
<rect x="100.8" y="5.6" width="11.7" height="11.7" fill="#4784FF" transform="rotate(-7.2 106.7 11.4)"></rect>
<rect x="114.2" y="7.7" width="9.4" height="9.4" fill="#4784FF" transform="rotate(-4.8 118.9 12.4)"></rect>
<rect x="128.4" y="8.2" width="9.3" height="9.3" fill="#4784FF" transform="rotate(7.4 133.1 12.9)"></rect>
<rect x="138.0" y="7.8" width="11.3" height="11.3" fill="#4784FF" transform="rotate(-8.0 143.6 13.4)"></rect>
<rect x="152.7" y="8.9" width="9.0" height="9.0" fill="#4784FF" transform="rotate(9.3 157.2 13.4)"></rect>
<rect x="164.6" y="5.3" width="10.3" height="10.3" fill="#4784FF" transform="rotate(-7.1 169.8 10.5)"></rect>
<rect x="174.7" y="6.1" width="8.8" height="8.8" fill="#4784FF" transform="rotate(6.9 179.1 10.5)"></rect>
<rect x="184.5" y="4.5" width="11.9" height="11.9" fill="#4784FF" transform="rotate(-8.7 190.5 10.5)"></rect>
<rect x="7.3" y="19.1" width="9.9" height="9.9" fill="#4784FF" transform="rotate(9.1 12.2 24.1)"></rect>
<rect x="18.6" y="18.9" width="9.4" height="9.4" fill="#4784FF" transform="rotate(-2.0 23.3 23.6)"></rect>
<rect x="30.5" y="17.5" width="11.8" height="11.8" fill="#4784FF" transform="rotate(11.2 36.4 23.4)"></rect>
<rect x="45.4" y="18.2" width="8.5" height="8.5" fill="#4784FF" transform="rotate(-0.8 49.7 22.5)"></rect>
<rect x="54.3" y="17.8" width="11.9" height="11.9" fill="#4784FF" transform="rotate(6.7 60.3 23.7)"></rect>
<rect x="65.0" y="17.8" width="11.6" height="11.6" fill="#4784FF" transform="rotate(-6.2 70.8 23.6)"></rect>
<rect x="81.1" y="17.7" width="9.1" height="9.1" fill="#4784FF" transform="rotate(-1.2 85.7 22.3)"></rect>
<rect x="91.3" y="18.5" width="10.5" height="10.5" fill="#4784FF" transform="rotate(6.3 96.5 23.8)"></rect>
<rect x="100.7" y="19.0" width="11.1" height="11.1" fill="#4784FF" transform="rotate(2.3 106.2 24.6)"></rect>
<rect x="115.0" y="21.3" width="9.0" height="9.0" fill="#4784FF" transform="rotate(11.2 119.5 25.8)"></rect>
<rect x="127.7" y="21.0" width="8.8" height="8.8" fill="#4784FF" transform="rotate(-9.6 132.1 25.4)"></rect>
<rect x="138.8" y="19.4" width="11.9" height="11.9" fill="#4784FF" transform="rotate(2.8 144.7 25.3)"></rect>
<rect x="150.7" y="19.0" width="9.2" height="9.2" fill="#4784FF" transform="rotate(5.4 155.3 23.6)"></rect>
<rect x="164.9" y="19.2" width="9.6" height="9.6" fill="#4784FF" transform="rotate(-1.0 169.7 23.9)"></rect>
<rect x="173.4" y="17.7" width="11.0" height="11.0" fill="#4784FF" transform="rotate(6.6 178.9 23.2)"></rect>
<rect x="186.5" y="18.7" width="10.5" height="10.5" fill="#4784FF" transform="rotate(2.5 191.8 24.0)"></rect>
<rect x="7.5" y="31.0" width="10.4" height="10.4" fill="#4784FF" transform="rotate(-11.9 12.7 36.2)"></rect>
<rect x="19.0" y="29.0" width="11.2" height="11.2" fill="#4784FF" transform="rotate(-5.3 24.7 34.6)"></rect>
<rect x="29.9" y="29.6" width="11.9" height="11.9" fill="#4784FF" transform="rotate(5.1 35.9 35.5)"></rect>
<rect x="43.6" y="31.8" width="9.0" height="9.0" fill="#4784FF" transform="rotate(3.3 48.1 36.3)"></rect>
<rect x="54.0" y="30.3" width="12.0" height="12.0" fill="#4784FF" transform="rotate(-2.7 60.0 36.3)"></rect>
<rect x="67.8" y="30.9" width="9.1" height="9.1" fill="#4784FF" transform="rotate(-1.2 72.4 35.4)"></rect>
<rect x="79.1" y="31.3" width="8.6" height="8.6" fill="#4784FF" transform="rotate(-3.2 83.4 35.6)"></rect>
<rect x="91.7" y="31.7" width="9.8" height="9.8" fill="#4784FF" transform="rotate(-3.3 96.6 36.5)"></rect>
<rect x="102.0" y="30.3" width="11.8" height="11.8" fill="#4784FF" transform="rotate(-3.8 107.9 36.2)"></rect>
<rect x="114.2" y="30.8" width="11.5" height="11.5" fill="#4784FF" transform="rotate(-2.3 120.0 36.5)"></rect>
<rect x="127.5" y="31.0" width="8.9" height="8.9" fill="#4784FF" transform="rotate(2.4 131.9 35.4)"></rect>
<rect x="138.4" y="28.5" width="12.0" height="12.0" fill="#4784FF" transform="rotate(0.5 144.4 34.4)"></rect>
<rect x="151.4" y="31.6" width="10.3" height="10.3" fill="#4784FF" transform="rotate(5.9 156.5 36.8)"></rect>
<rect x="163.0" y="30.7" width="10.4" height="10.4" fill="#4784FF" transform="rotate(4.7 168.2 35.9)"></rect>
<rect x="174.2" y="29.1" width="11.8" height="11.8" fill="#4784FF" transform="rotate(7.7 180.1 35.0)"></rect>
<rect x="186.8" y="30.7" width="11.0" height="11.0" fill="#4784FF" transform="rotate(-3.0 192.3 36.2)"></rect>
<rect x="7.0" y="44.0" width="8.7" height="8.7" fill="#4784FF" transform="rotate(-8.3 11.3 48.4)"></rect>
<rect x="19.2" y="43.6" width="12.0" height="12.0" fill="#4784FF" transform="rotate(5.8 25.2 49.6)"></rect>
<rect x="30.7" y="43.1" width="8.7" height="8.7" fill="#4784FF" transform="rotate(0.2 35.0 47.4)"></rect>
<rect x="44.0" y="41.4" width="11.5" height="11.5" fill="#4784FF" transform="rotate(11.3 49.7 47.2)"></rect>
<rect x="55.7" y="42.6" width="10.6" height="10.6" fill="#4784FF" transform="rotate(-1.4 61.0 47.9)"></rect>
<rect x="66.5" y="43.4" width="9.8" height="9.8" fill="#4784FF" transform="rotate(-2.7 71.4 48.3)"></rect>
<rect x="126.5" y="43.1" width="10.0" height="10.0" fill="#4784FF" transform="rotate(-0.8 131.5 48.1)"></rect>
<rect x="137.8" y="41.9" width="10.4" height="10.4" fill="#4784FF" transform="rotate(-3.8 143.0 47.1)"></rect>
<rect x="152.4" y="42.2" width="9.7" height="9.7" fill="#4784FF" transform="rotate(1.4 157.3 47.1)"></rect>
<rect x="161.6" y="44.3" width="10.4" height="10.4" fill="#4784FF" transform="rotate(11.0 166.9 49.5)"></rect>
<rect x="176.5" y="43.2" width="10.5" height="10.5" fill="#4784FF" transform="rotate(-0.3 181.8 48.5)"></rect>
<rect x="185.8" y="44.2" width="10.0" height="10.0" fill="#4784FF" transform="rotate(-3.9 190.8 49.2)"></rect>
<rect x="8.3" y="56.5" width="8.5" height="8.5" fill="#4784FF" transform="rotate(-4.6 12.5 60.7)"></rect>
<rect x="17.1" y="55.5" width="10.7" height="10.7" fill="#4784FF" transform="rotate(9.7 22.5 60.8)"></rect>
<rect x="29.4" y="56.1" width="10.0" height="10.0" fill="#4784FF" transform="rotate(11.7 34.4 61.1)"></rect>
<rect x="40.9" y="52.3" width="11.8" height="11.8" fill="#4784FF" transform="rotate(10.2 46.8 58.2)"></rect>
<rect x="54.5" y="54.2" width="11.6" height="11.6" fill="#4784FF" transform="rotate(3.9 60.2 60.0)"></rect>
<rect x="66.6" y="54.4" width="10.3" height="10.3" fill="#4784FF" transform="rotate(3.4 71.7 59.5)"></rect>
<rect x="126.5" y="55.9" width="9.6" height="9.6" fill="#4784FF" transform="rotate(-1.4 131.3 60.7)"></rect>
<rect x="139.5" y="55.1" width="10.8" height="10.8" fill="#4784FF" transform="rotate(8.7 144.9 60.5)"></rect>
<rect x="150.6" y="54.1" width="10.9" height="10.9" fill="#4784FF" transform="rotate(-6.5 156.1 59.5)"></rect>
<rect x="163.3" y="53.6" width="11.8" height="11.8" fill="#4784FF" transform="rotate(8.5 169.2 59.6)"></rect>
<rect x="174.3" y="54.0" width="10.1" height="10.1" fill="#4784FF" transform="rotate(8.4 179.4 59.1)"></rect>
<rect x="185.6" y="55.9" width="10.3" height="10.3" fill="#4784FF" transform="rotate(9.4 190.8 61.1)"></rect>
<rect x="7.8" y="64.9" width="10.8" height="10.8" fill="#4784FF" transform="rotate(0.1 13.2 70.3)"></rect>
<rect x="18.6" y="66.9" width="10.5" height="10.5" fill="#4784FF" transform="rotate(-11.5 23.8 72.2)"></rect>
<rect x="30.5" y="66.7" width="9.6" height="9.6" fill="#4784FF" transform="rotate(-3.2 35.3 71.5)"></rect>
<rect x="42.9" y="65.7" width="11.6" height="11.6" fill="#4784FF" transform="rotate(-1.2 48.7 71.4)"></rect>
<rect x="54.3" y="65.7" width="11.6" height="11.6" fill="#4784FF" transform="rotate(-1.9 60.1 71.5)"></rect>
<rect x="67.8" y="67.7" width="9.2" height="9.2" fill="#4784FF" transform="rotate(2.2 72.4 72.3)"></rect>
<rect x="126.8" y="67.3" width="9.0" height="9.0" fill="#4784FF" transform="rotate(3.0 131.3 71.8)"></rect>
<rect x="139.9" y="67.7" width="9.4" height="9.4" fill="#4784FF" transform="rotate(-3.4 144.6 72.4)"></rect>
<rect x="150.9" y="67.6" width="8.8" height="8.8" fill="#4784FF" transform="rotate(-0.8 155.3 72.1)"></rect>
<rect x="162.8" y="67.8" width="9.1" height="9.1" fill="#4784FF" transform="rotate(3.0 167.4 72.3)"></rect>
<rect x="185.6" y="65.8" width="10.5" height="10.5" fill="#4784FF" transform="rotate(0.1 190.8 71.1)"></rect>
<rect x="7.1" y="81.0" width="8.7" height="8.7" fill="#4784FF" transform="rotate(11.0 11.5 85.3)"></rect>
<rect x="18.9" y="80.9" width="9.1" height="9.1" fill="#4784FF" transform="rotate(6.5 23.4 85.5)"></rect>
<rect x="29.9" y="78.2" width="11.5" height="11.5" fill="#4784FF" transform="rotate(3.4 35.6 84.0)"></rect>
<rect x="164.0" y="80.1" width="9.0" height="9.0" fill="#4784FF" transform="rotate(1.0 168.5 84.6)"></rect>
<rect x="173.5" y="78.3" width="9.7" height="9.7" fill="#4784FF" transform="rotate(10.8 178.4 83.1)"></rect>
<rect x="186.5" y="77.2" width="11.6" height="11.6" fill="#4784FF" transform="rotate(-6.2 192.3 83.0)"></rect>
<rect x="5.2" y="91.4" width="11.5" height="11.5" fill="#4784FF" transform="rotate(10.6 11.0 97.1)"></rect>
<rect x="18.3" y="92.5" width="9.6" height="9.6" fill="#4784FF" transform="rotate(-7.6 23.1 97.3)"></rect>
<rect x="31.7" y="91.9" width="9.3" height="9.3" fill="#4784FF" transform="rotate(2.0 36.3 96.5)"></rect>
<rect x="163.9" y="91.6" width="8.7" height="8.7" fill="#4784FF" transform="rotate(1.8 168.3 96.0)"></rect>
<rect x="174.0" y="91.7" width="11.5" height="11.5" fill="#4784FF" transform="rotate(1.6 179.8 97.4)"></rect>
<rect x="186.0" y="90.3" width="10.1" height="10.1" fill="#4784FF" transform="rotate(-7.8 191.0 95.3)"></rect>
<rect x="5.7" y="103.6" width="11.4" height="11.4" fill="#4784FF" transform="rotate(-7.9 11.4 109.3)"></rect>
<rect x="20.3" y="103.4" width="8.9" height="8.9" fill="#4784FF" transform="rotate(9.4 24.8 107.8)"></rect>
<rect x="30.1" y="103.0" width="11.3" height="11.3" fill="#4784FF" transform="rotate(2.5 35.7 108.7)"></rect>
<rect x="162.2" y="102.7" width="11.8" height="11.8" fill="#4784FF" transform="rotate(-2.5 168.1 108.6)"></rect>
<rect x="176.0" y="102.0" width="9.8" height="9.8" fill="#4784FF" transform="rotate(5.9 181.0 106.9)"></rect>
<rect x="188.2" y="102.8" width="11.0" height="11.0" fill="#4784FF" transform="rotate(-4.3 193.6 108.3)"></rect>
<rect x="5.6" y="115.0" width="11.7" height="11.7" fill="#4784FF" transform="rotate(11.6 11.4 120.9)"></rect>
<rect x="19.3" y="115.9" width="8.5" height="8.5" fill="#4784FF" transform="rotate(-5.2 23.5 120.1)"></rect>
<rect x="31.3" y="114.9" width="10.0" height="10.0" fill="#4784FF" transform="rotate(-2.0 36.3 119.9)"></rect>
<rect x="161.9" y="113.6" width="11.6" height="11.6" fill="#4784FF" transform="rotate(0.6 167.7 119.4)"></rect>
<rect x="175.1" y="115.5" width="9.4" height="9.4" fill="#4784FF" transform="rotate(-9.6 179.8 120.2)"></rect>
<rect x="189.1" y="115.8" width="8.9" height="8.9" fill="#4784FF" transform="rotate(-4.1 193.6 120.3)"></rect>
<rect x="6.7" y="127.9" width="9.3" height="9.3" fill="#4784FF" transform="rotate(6.8 11.4 132.5)"></rect>
<rect x="17.8" y="125.8" width="11.0" height="11.0" fill="#4784FF" transform="rotate(-9.5 23.3 131.3)"></rect>
<rect x="31.2" y="126.5" width="9.8" height="9.8" fill="#4784FF" transform="rotate(0.0 36.1 131.4)"></rect>
<rect x="43.8" y="127.8" width="9.7" height="9.7" fill="#4784FF" transform="rotate(-1.6 48.7 132.7)"></rect>
<rect x="53.5" y="125.5" width="11.6" height="11.6" fill="#4784FF" transform="rotate(1.5 59.3 131.3)"></rect>
<rect x="67.4" y="127.7" width="8.5" height="8.5" fill="#4784FF" transform="rotate(-0.3 71.6 131.9)"></rect>
<rect x="127.1" y="126.7" width="11.2" height="11.2" fill="#4784FF" transform="rotate(-2.0 132.7 132.3)"></rect>
<rect x="140.3" y="127.1" width="8.5" height="8.5" fill="#4784FF" transform="rotate(-0.5 144.6 131.3)"></rect>
<rect x="151.9" y="127.1" width="8.8" height="8.8" fill="#4784FF" transform="rotate(0.4 156.3 131.5)"></rect>
<rect x="163.7" y="127.8" width="9.1" height="9.1" fill="#4784FF" transform="rotate(-3.4 168.2 132.4)"></rect>
<rect x="174.2" y="126.1" width="8.7" height="8.7" fill="#4784FF" transform="rotate(-4.7 178.6 130.5)"></rect>
<rect x="8.4" y="139.0" width="9.1" height="9.1" fill="#4784FF" transform="rotate(1.1 13.0 143.6)"></rect>
<rect x="19.8" y="138.9" width="8.8" height="8.8" fill="#4784FF" transform="rotate(-8.3 24.2 143.3)"></rect>
<rect x="28.5" y="138.2" width="11.7" height="11.7" fill="#4784FF" transform="rotate(-2.4 34.4 144.1)"></rect>
<rect x="42.9" y="138.4" width="10.5" height="10.5" fill="#4784FF" transform="rotate(-2.1 48.1 143.6)"></rect>
<rect x="55.2" y="138.4" width="10.9" height="10.9" fill="#4784FF" transform="rotate(8.7 60.7 143.9)"></rect>
<rect x="67.7" y="139.8" width="9.7" height="9.7" fill="#4784FF" transform="rotate(-1.8 72.5 144.6)"></rect>
<rect x="126.6" y="139.0" width="9.9" height="9.9" fill="#4784FF" transform="rotate(2.8 131.5 144.0)"></rect>
<rect x="139.0" y="138.5" width="10.5" height="10.5" fill="#4784FF" transform="rotate(2.6 144.3 143.8)"></rect>
<rect x="149.3" y="138.5" width="11.5" height="11.5" fill="#4784FF" transform="rotate(-0.4 155.1 144.3)"></rect>
<rect x="162.8" y="140.2" width="10.4" height="10.4" fill="#4784FF" transform="rotate(-5.7 168.0 145.4)"></rect>
<rect x="175.7" y="138.5" width="10.8" height="10.8" fill="#4784FF" transform="rotate(11.9 181.1 143.9)"></rect>
<rect x="186.2" y="138.3" width="11.1" height="11.1" fill="#4784FF" transform="rotate(-11.3 191.8 143.8)"></rect>
<rect x="6.5" y="150.3" width="8.7" height="8.7" fill="#4784FF" transform="rotate(3.5 10.9 154.6)"></rect>
<rect x="20.4" y="149.4" width="9.9" height="9.9" fill="#4784FF" transform="rotate(1.4 25.4 154.4)"></rect>
<rect x="29.6" y="150.5" width="11.9" height="11.9" fill="#4784FF" transform="rotate(-10.5 35.5 156.4)"></rect>
<rect x="44.3" y="152.2" width="10.5" height="10.5" fill="#4784FF" transform="rotate(-11.1 49.6 157.5)"></rect>
<rect x="54.5" y="152.0" width="11.5" height="11.5" fill="#4784FF" transform="rotate(4.5 60.3 157.7)"></rect>
<rect x="65.5" y="150.6" width="11.7" height="11.7" fill="#4784FF" transform="rotate(-1.0 71.4 156.5)"></rect>
<rect x="128.0" y="152.1" width="8.7" height="8.7" fill="#4784FF" transform="rotate(-3.0 132.3 156.4)"></rect>
<rect x="140.7" y="152.1" width="9.2" height="9.2" fill="#4784FF" transform="rotate(-0.9 145.3 156.7)"></rect>
<rect x="151.1" y="150.9" width="9.4" height="9.4" fill="#4784FF" transform="rotate(-8.6 155.8 155.6)"></rect>
<rect x="160.5" y="150.3" width="11.8" height="11.8" fill="#4784FF" transform="rotate(-3.9 166.4 156.2)"></rect>
<rect x="175.5" y="152.6" width="9.3" height="9.3" fill="#4784FF" transform="rotate(-3.2 180.1 157.2)"></rect>
<rect x="189.0" y="150.2" width="9.0" height="9.0" fill="#4784FF" transform="rotate(-2.8 193.5 154.7)"></rect>
<rect x="5.6" y="161.7" width="10.7" height="10.7" fill="#4784FF" transform="rotate(11.0 10.9 167.0)"></rect>
<rect x="18.0" y="162.5" width="9.4" height="9.4" fill="#4784FF" transform="rotate(-11.9 22.7 167.2)"></rect>
<rect x="31.8" y="161.1" width="11.7" height="11.7" fill="#4784FF" transform="rotate(4.7 37.6 166.9)"></rect>
<rect x="42.0" y="164.9" width="9.8" height="9.8" fill="#4784FF" transform="rotate(3.1 46.9 169.8)"></rect>
<rect x="56.1" y="162.5" width="10.7" height="10.7" fill="#4784FF" transform="rotate(-3.5 61.4 167.8)"></rect>
<rect x="67.0" y="163.0" width="8.8" height="8.8" fill="#4784FF" transform="rotate(3.7 71.4 167.3)"></rect>
<rect x="79.4" y="164.1" width="8.9" height="8.9" fill="#4784FF" transform="rotate(3.2 83.9 168.6)"></rect>
<rect x="90.5" y="162.6" width="9.6" height="9.6" fill="#4784FF" transform="rotate(1.6 95.3 167.3)"></rect>
<rect x="102.1" y="163.0" width="10.6" height="10.6" fill="#4784FF" transform="rotate(-1.7 107.4 168.4)"></rect>
<rect x="115.1" y="162.7" width="9.6" height="9.6" fill="#4784FF" transform="rotate(-1.5 119.9 167.5)"></rect>
<rect x="126.9" y="163.0" width="9.8" height="9.8" fill="#4784FF" transform="rotate(-2.5 131.8 167.9)"></rect>
<rect x="139.5" y="163.0" width="11.1" height="11.1" fill="#4784FF" transform="rotate(2.0 145.0 168.6)"></rect>
<rect x="148.9" y="161.3" width="11.9" height="11.9" fill="#4784FF" transform="rotate(9.9 154.8 167.3)"></rect>
<rect x="176.0" y="163.7" width="10.2" height="10.2" fill="#4784FF" transform="rotate(-6.8 181.1 168.8)"></rect>
<rect x="186.0" y="160.8" width="11.1" height="11.1" fill="#4784FF" transform="rotate(5.1 191.6 166.4)"></rect>
<rect x="7.9" y="174.8" width="10.0" height="10.0" fill="#4784FF" transform="rotate(-9.8 12.9 179.8)"></rect>
<rect x="20.0" y="173.5" width="11.4" height="11.4" fill="#4784FF" transform="rotate(8.7 25.7 179.2)"></rect>
<rect x="32.2" y="174.7" width="9.2" height="9.2" fill="#4784FF" transform="rotate(-1.3 36.8 179.3)"></rect>
<rect x="45.3" y="177.1" width="8.6" height="8.6" fill="#4784FF" transform="rotate(5.5 49.6 181.4)"></rect>
<rect x="54.2" y="174.3" width="10.2" height="10.2" fill="#4784FF" transform="rotate(-9.7 59.3 179.4)"></rect>
<rect x="67.8" y="173.9" width="9.5" height="9.5" fill="#4784FF" transform="rotate(7.2 72.6 178.7)"></rect>
<rect x="79.7" y="174.6" width="8.9" height="8.9" fill="#4784FF" transform="rotate(-0.5 84.2 179.1)"></rect>
<rect x="90.3" y="177.0" width="9.4" height="9.4" fill="#4784FF" transform="rotate(-4.4 95.0 181.7)"></rect>
<rect x="104.3" y="176.0" width="8.6" height="8.6" fill="#4784FF" transform="rotate(7.2 108.6 180.3)"></rect>
<rect x="115.3" y="174.4" width="8.7" height="8.7" fill="#4784FF" transform="rotate(-10.5 119.7 178.8)"></rect>
<rect x="128.1" y="174.2" width="9.6" height="9.6" fill="#4784FF" transform="rotate(-4.8 132.9 179.0)"></rect>
<rect x="138.9" y="175.3" width="10.4" height="10.4" fill="#4784FF" transform="rotate(7.5 144.2 180.5)"></rect>
<rect x="150.5" y="174.0" width="8.7" height="8.7" fill="#4784FF" transform="rotate(-1.7 154.9 178.3)"></rect>
<rect x="161.9" y="172.9" width="11.0" height="11.0" fill="#4784FF" transform="rotate(-9.6 167.4 178.4)"></rect>
<rect x="176.5" y="173.9" width="9.7" height="9.7" fill="#4784FF" transform="rotate(9.7 181.3 178.7)"></rect>
<rect x="186.2" y="173.7" width="9.1" height="9.1" fill="#4784FF" transform="rotate(-7.6 190.7 178.2)"></rect>
<rect x="5.3" y="184.9" width="10.8" height="10.8" fill="#4784FF" transform="rotate(-1.8 10.7 190.3)"></rect>
<rect x="18.0" y="187.5" width="9.5" height="9.5" fill="#4784FF" transform="rotate(-7.2 22.8 192.2)"></rect>
<rect x="31.6" y="187.1" width="11.6" height="11.6" fill="#4784FF" transform="rotate(-7.2 37.3 192.9)"></rect>
<rect x="43.6" y="187.8" width="9.8" height="9.8" fill="#4784FF" transform="rotate(-7.1 48.5 192.7)"></rect>
<rect x="55.5" y="187.1" width="10.6" height="10.6" fill="#4784FF" transform="rotate(7.7 60.8 192.3)"></rect>
<rect x="65.4" y="187.6" width="10.6" height="10.6" fill="#4784FF" transform="rotate(-0.3 70.7 192.9)"></rect>
<rect x="80.2" y="187.7" width="10.4" height="10.4" fill="#4784FF" transform="rotate(-1.6 85.4 192.9)"></rect>
<rect x="91.2" y="186.5" width="11.9" height="11.9" fill="#4784FF" transform="rotate(-3.6 97.1 192.4)"></rect>
<rect x="104.9" y="186.0" width="9.4" height="9.4" fill="#4784FF" transform="rotate(-11.3 109.6 190.7)"></rect>
<rect x="116.2" y="185.8" width="10.7" height="10.7" fill="#4784FF" transform="rotate(-0.8 121.6 191.2)"></rect>
<rect x="125.6" y="185.2" width="11.8" height="11.8" fill="#4784FF" transform="rotate(7.3 131.5 191.1)"></rect>
<rect x="139.0" y="188.8" width="9.2" height="9.2" fill="#4784FF" transform="rotate(-4.5 143.6 193.4)"></rect>
<rect x="151.7" y="185.7" width="10.9" height="10.9" fill="#4784FF" transform="rotate(-0.8 157.2 191.2)"></rect>
<rect x="161.0" y="187.4" width="11.6" height="11.6" fill="#4784FF" transform="rotate(0.7 166.8 193.2)"></rect>
<rect x="175.3" y="187.1" width="9.8" height="9.8" fill="#4784FF" transform="rotate(-4.7 180.2 192.0)"></rect>
<rect x="186.3" y="189.1" width="8.5" height="8.5" fill="#4784FF" transform="rotate(-4.2 190.5 193.3)"></rect>
</svg>