<svg id="visual" viewBox="0 0 540 960" width="540" height="960" xmlns="http://www.w3.org/2000/svg" xmlns:xlink="http://www.w3.org/1999/xlink" version="1.1"><rect x="0" y="0" width="540" height="960" fill="#ffffff"></rect><path d="M0 290L12.8 304.8C25.7 319.7 51.3 349.3 77 353.8C102.7 358.3 128.3 337.7 154 326.2C179.7 314.7 205.3 312.3 231.2 317.2C257 322 283 334 308.8 338.5C334.7 343 360.3 340 386 330.8C411.7 321.7 437.3 306.3 463 303.5C488.7 300.7 514.3 310.3 527.2 315.2L540 320L540 0L527.2 0C514.3 0 488.7 0 463 0C437.3 0 411.7 0 386 0C360.3 0 334.7 0 308.8 0C283 0 257 0 231.2 0C205.3 0 179.7 0 154 0C128.3 0 102.7 0 77 0C51.3 0 25.7 0 12.8 0L0 0Z" fill="#ebffee" stroke-linecap="round" stroke-linejoin="miter"></path></svg>